G04*
G04 #@! TF.GenerationSoftware,Altium Limited,Altium Designer,20.0.13 (296)*
G04*
G04 Layer_Physical_Order=2*
G04 Layer_Color=16711680*
%FSLAX24Y24*%
%MOIN*%
G70*
G01*
G75*
%ADD11C,0.0100*%
%ADD13C,0.0120*%
%ADD19R,0.0512X0.0591*%
%ADD23R,0.0551X0.0433*%
%ADD24R,0.0433X0.0551*%
%ADD25R,0.0551X0.0394*%
%ADD27R,0.0591X0.0512*%
%ADD58C,0.0400*%
%ADD59C,0.0160*%
%ADD61P,0.0714X8X22.5*%
%ADD62P,0.0649X8X22.5*%
%ADD63R,0.0600X0.0600*%
%ADD64C,0.0600*%
%ADD65C,0.0515*%
%ADD66C,0.0709*%
%ADD67C,0.0500*%
%ADD68C,0.0300*%
%ADD69C,0.0270*%
%ADD70C,0.0240*%
%ADD71C,0.0250*%
G36*
X19909Y82D02*
X82D01*
X82Y20915D01*
X19909D01*
Y82D01*
D02*
G37*
G36*
X49130Y80D02*
X24982D01*
Y20913D01*
X49130D01*
Y80D01*
D02*
G37*
%LPC*%
G36*
X4275Y20410D02*
X4145D01*
Y20075D01*
X4480D01*
Y20205D01*
X4275Y20410D01*
D02*
G37*
G36*
X3995D02*
X3865D01*
X3660Y20205D01*
Y20075D01*
X3995D01*
Y20410D01*
D02*
G37*
G36*
X18870Y20400D02*
X18470D01*
X18270Y20200D01*
Y19800D01*
X18470Y19600D01*
X18870D01*
X19070Y19800D01*
Y20200D01*
X18870Y20400D01*
D02*
G37*
G36*
X17870D02*
X17470D01*
X17270Y20200D01*
Y19800D01*
X17470Y19600D01*
X17870D01*
X18070Y19800D01*
Y20200D01*
X17870Y20400D01*
D02*
G37*
G36*
X16870D02*
X16470D01*
X16270Y20200D01*
Y19800D01*
X16470Y19600D01*
X16870D01*
X17070Y19800D01*
Y20200D01*
X16870Y20400D01*
D02*
G37*
G36*
X15870D02*
X15470D01*
X15270Y20200D01*
Y19800D01*
X15470Y19600D01*
X15870D01*
X16070Y19800D01*
Y20200D01*
X15870Y20400D01*
D02*
G37*
G36*
X14870D02*
X14470D01*
X14270Y20200D01*
Y19800D01*
X14470Y19600D01*
X14870D01*
X15070Y19800D01*
Y20200D01*
X14870Y20400D01*
D02*
G37*
G36*
X13870D02*
X13470D01*
X13270Y20200D01*
Y19800D01*
X13470Y19600D01*
X13870D01*
X14070Y19800D01*
Y20200D01*
X13870Y20400D01*
D02*
G37*
G36*
X12870D02*
X12470D01*
X12270Y20200D01*
Y19800D01*
X12470Y19600D01*
X12870D01*
X13070Y19800D01*
Y20200D01*
X12870Y20400D01*
D02*
G37*
G36*
X11870D02*
X11470D01*
X11270Y20200D01*
Y19800D01*
X11470Y19600D01*
X11870D01*
X12070Y19800D01*
Y20200D01*
X11870Y20400D01*
D02*
G37*
G36*
X10270D02*
X9870D01*
X9670Y20200D01*
Y19800D01*
X9870Y19600D01*
X10270D01*
X10470Y19800D01*
Y20200D01*
X10270Y20400D01*
D02*
G37*
G36*
X9270D02*
X8870D01*
X8670Y20200D01*
Y19800D01*
X8870Y19600D01*
X9270D01*
X9470Y19800D01*
Y20200D01*
X9270Y20400D01*
D02*
G37*
G36*
X8270D02*
X7870D01*
X7670Y20200D01*
Y19800D01*
X7870Y19600D01*
X8270D01*
X8470Y19800D01*
Y20200D01*
X8270Y20400D01*
D02*
G37*
G36*
X7270D02*
X6870D01*
X6670Y20200D01*
Y19800D01*
X6870Y19600D01*
X7270D01*
X7470Y19800D01*
Y20200D01*
X7270Y20400D01*
D02*
G37*
G36*
X6270D02*
X5870D01*
X5670Y20200D01*
Y19800D01*
X5870Y19600D01*
X6270D01*
X6470Y19800D01*
Y20200D01*
X6270Y20400D01*
D02*
G37*
G36*
X5270D02*
X4870D01*
X4670Y20200D01*
Y19800D01*
X4870Y19600D01*
X5270D01*
X5470Y19800D01*
Y20200D01*
X5270Y20400D01*
D02*
G37*
G36*
X3270D02*
X2870D01*
X2670Y20200D01*
Y19800D01*
X2870Y19600D01*
X3270D01*
X3470Y19800D01*
Y20200D01*
X3270Y20400D01*
D02*
G37*
G36*
X2270D02*
X1870D01*
X1670Y20200D01*
Y19800D01*
X1870Y19600D01*
X2270D01*
X2470Y19800D01*
Y20200D01*
X2270Y20400D01*
D02*
G37*
G36*
X1270D02*
X870D01*
X670Y20200D01*
Y19800D01*
X870Y19600D01*
X1270D01*
X1470Y19800D01*
Y20200D01*
X1270Y20400D01*
D02*
G37*
G36*
X4480Y19925D02*
X4145D01*
Y19590D01*
X4275D01*
X4480Y19795D01*
Y19925D01*
D02*
G37*
G36*
X3995D02*
X3660D01*
Y19795D01*
X3865Y19590D01*
X3995D01*
Y19925D01*
D02*
G37*
G36*
X1655Y18573D02*
Y18325D01*
X1903D01*
X1902Y18336D01*
X1868Y18416D01*
X1815Y18485D01*
X1746Y18538D01*
X1666Y18572D01*
X1655Y18573D01*
D02*
G37*
G36*
X1505D02*
X1494Y18572D01*
X1414Y18538D01*
X1345Y18485D01*
X1292Y18416D01*
X1258Y18336D01*
X1257Y18325D01*
X1505D01*
Y18573D01*
D02*
G37*
G36*
X2580Y18573D02*
X2496Y18562D01*
X2419Y18530D01*
X2352Y18478D01*
X2300Y18411D01*
X2268Y18334D01*
X2257Y18250D01*
X2268Y18166D01*
X2300Y18089D01*
X2352Y18022D01*
X2419Y17970D01*
X2496Y17938D01*
X2580Y17927D01*
X2664Y17938D01*
X2741Y17970D01*
X2808Y18022D01*
X2860Y18089D01*
X2892Y18166D01*
X2903Y18250D01*
X2892Y18334D01*
X2860Y18411D01*
X2808Y18478D01*
X2741Y18530D01*
X2664Y18562D01*
X2580Y18573D01*
D02*
G37*
G36*
X1903Y18175D02*
X1655D01*
Y17927D01*
X1666Y17928D01*
X1746Y17962D01*
X1815Y18015D01*
X1868Y18084D01*
X1902Y18164D01*
X1903Y18175D01*
D02*
G37*
G36*
X1505D02*
X1257D01*
X1258Y18164D01*
X1292Y18084D01*
X1345Y18015D01*
X1414Y17962D01*
X1494Y17928D01*
X1505Y17927D01*
Y18175D01*
D02*
G37*
G36*
X16040Y18013D02*
X15300D01*
Y17273D01*
X16040D01*
Y18013D01*
D02*
G37*
G36*
X15745Y17032D02*
Y16734D01*
X16043D01*
X16040Y16758D01*
X16002Y16850D01*
X15941Y16930D01*
X15862Y16991D01*
X15769Y17029D01*
X15745Y17032D01*
D02*
G37*
G36*
X15595D02*
X15571Y17029D01*
X15478Y16991D01*
X15399Y16930D01*
X15338Y16850D01*
X15300Y16758D01*
X15297Y16734D01*
X15595D01*
Y17032D01*
D02*
G37*
G36*
X16043Y16584D02*
X15745D01*
Y16285D01*
X15769Y16288D01*
X15862Y16327D01*
X15941Y16388D01*
X16002Y16467D01*
X16040Y16559D01*
X16043Y16584D01*
D02*
G37*
G36*
X15595D02*
X15297D01*
X15300Y16559D01*
X15338Y16467D01*
X15399Y16388D01*
X15478Y16327D01*
X15571Y16288D01*
X15595Y16285D01*
Y16584D01*
D02*
G37*
G36*
X1655Y16098D02*
Y15850D01*
X1903D01*
X1902Y15861D01*
X1868Y15941D01*
X1815Y16010D01*
X1746Y16063D01*
X1666Y16096D01*
X1655Y16098D01*
D02*
G37*
G36*
X1505D02*
X1494Y16096D01*
X1414Y16063D01*
X1345Y16010D01*
X1292Y15941D01*
X1258Y15861D01*
X1257Y15850D01*
X1505D01*
Y16098D01*
D02*
G37*
G36*
X2580Y16097D02*
X2496Y16086D01*
X2419Y16054D01*
X2352Y16003D01*
X2300Y15936D01*
X2268Y15858D01*
X2257Y15775D01*
X2268Y15691D01*
X2300Y15613D01*
X2352Y15546D01*
X2419Y15495D01*
X2496Y15463D01*
X2580Y15452D01*
X2664Y15463D01*
X2741Y15495D01*
X2808Y15546D01*
X2860Y15613D01*
X2892Y15691D01*
X2903Y15775D01*
X2892Y15858D01*
X2860Y15936D01*
X2808Y16003D01*
X2741Y16054D01*
X2664Y16086D01*
X2580Y16097D01*
D02*
G37*
G36*
X1903Y15700D02*
X1655D01*
Y15452D01*
X1666Y15453D01*
X1746Y15486D01*
X1815Y15539D01*
X1868Y15608D01*
X1902Y15689D01*
X1903Y15700D01*
D02*
G37*
G36*
X1505D02*
X1257D01*
X1258Y15689D01*
X1292Y15608D01*
X1345Y15539D01*
X1414Y15486D01*
X1494Y15453D01*
X1505Y15452D01*
Y15700D01*
D02*
G37*
G36*
X15670Y16048D02*
X15573Y16035D01*
X15483Y15998D01*
X15406Y15938D01*
X15347Y15861D01*
X15310Y15771D01*
X15297Y15674D01*
X15310Y15578D01*
X15347Y15488D01*
X15406Y15410D01*
X15483Y15351D01*
X15573Y15314D01*
X15670Y15301D01*
X15767Y15314D01*
X15857Y15351D01*
X15934Y15410D01*
X15993Y15488D01*
X16030Y15578D01*
X16043Y15674D01*
X16030Y15771D01*
X15993Y15861D01*
X15934Y15938D01*
X15857Y15998D01*
X15767Y16035D01*
X15670Y16048D01*
D02*
G37*
G36*
X15745Y15064D02*
Y14765D01*
X16043D01*
X16040Y14789D01*
X16002Y14882D01*
X15941Y14961D01*
X15862Y15022D01*
X15769Y15060D01*
X15745Y15064D01*
D02*
G37*
G36*
X15595D02*
X15571Y15060D01*
X15478Y15022D01*
X15399Y14961D01*
X15338Y14882D01*
X15300Y14789D01*
X15297Y14765D01*
X15595D01*
Y15064D01*
D02*
G37*
G36*
X16043Y14615D02*
X15745D01*
Y14317D01*
X15769Y14320D01*
X15862Y14358D01*
X15941Y14419D01*
X16002Y14498D01*
X16040Y14591D01*
X16043Y14615D01*
D02*
G37*
G36*
X15595D02*
X15297D01*
X15300Y14591D01*
X15338Y14498D01*
X15399Y14419D01*
X15478Y14358D01*
X15571Y14320D01*
X15595Y14317D01*
Y14615D01*
D02*
G37*
G36*
X4180Y13214D02*
X4106Y13199D01*
X4043Y13157D01*
X4001Y13094D01*
X3986Y13020D01*
X4001Y12946D01*
X4043Y12883D01*
X4106Y12841D01*
X4180Y12826D01*
X4254Y12841D01*
X4271Y12852D01*
X7557D01*
X7596Y12826D01*
X7670Y12812D01*
X7744Y12826D01*
X7807Y12868D01*
X7849Y12931D01*
X7864Y13005D01*
X7849Y13080D01*
X7807Y13142D01*
X7744Y13184D01*
X7670Y13199D01*
X7596Y13184D01*
X7559Y13159D01*
X7536Y13158D01*
X4315D01*
X4254Y13199D01*
X4180Y13214D01*
D02*
G37*
G36*
X5742Y12674D02*
X5668Y12659D01*
X5605Y12617D01*
X5563Y12554D01*
X5548Y12480D01*
X5563Y12406D01*
X5605Y12343D01*
X5612Y12338D01*
X5613Y12336D01*
X5615Y12333D01*
X5616Y12330D01*
X5618Y12325D01*
X5619Y12320D01*
X5620Y12315D01*
Y9845D01*
X5619Y9840D01*
X5618Y9835D01*
X5616Y9830D01*
X5615Y9827D01*
X5613Y9824D01*
X5612Y9822D01*
X5605Y9817D01*
X5563Y9754D01*
X5548Y9680D01*
X5563Y9606D01*
X5605Y9543D01*
X5668Y9501D01*
X5742Y9486D01*
X5816Y9501D01*
X5879Y9543D01*
X5921Y9606D01*
X5936Y9680D01*
X5921Y9754D01*
X5879Y9817D01*
X5872Y9822D01*
X5871Y9824D01*
X5869Y9827D01*
X5868Y9830D01*
X5866Y9835D01*
X5865Y9840D01*
X5864Y9845D01*
Y12315D01*
X5865Y12320D01*
X5866Y12325D01*
X5868Y12330D01*
X5869Y12333D01*
X5871Y12336D01*
X5872Y12338D01*
X5879Y12343D01*
X5921Y12406D01*
X5936Y12480D01*
X5921Y12554D01*
X5879Y12617D01*
X5816Y12659D01*
X5742Y12674D01*
D02*
G37*
G36*
X9650Y12679D02*
X9576Y12664D01*
X9513Y12622D01*
X9471Y12559D01*
X9456Y12485D01*
X9471Y12411D01*
X9513Y12348D01*
X9520Y12343D01*
X9521Y12341D01*
X9523Y12338D01*
X9524Y12335D01*
X9526Y12330D01*
X9527Y12325D01*
X9528Y12320D01*
Y9725D01*
X9527Y9720D01*
X9526Y9715D01*
X9524Y9710D01*
X9523Y9707D01*
X9521Y9704D01*
X9520Y9702D01*
X9513Y9697D01*
X9471Y9634D01*
X9456Y9560D01*
X9471Y9486D01*
X9513Y9423D01*
X9576Y9381D01*
X9650Y9366D01*
X9724Y9381D01*
X9787Y9423D01*
X9829Y9486D01*
X9844Y9560D01*
X9829Y9634D01*
X9787Y9697D01*
X9780Y9702D01*
X9779Y9704D01*
X9777Y9707D01*
X9776Y9710D01*
X9774Y9715D01*
X9773Y9720D01*
X9772Y9725D01*
Y12320D01*
X9773Y12325D01*
X9774Y12330D01*
X9776Y12335D01*
X9777Y12338D01*
X9779Y12341D01*
X9780Y12343D01*
X9787Y12348D01*
X9829Y12411D01*
X9844Y12485D01*
X9829Y12559D01*
X9787Y12622D01*
X9724Y12664D01*
X9650Y12679D01*
D02*
G37*
G36*
X15279Y8890D02*
X6107D01*
X6061Y8880D01*
X6021Y8854D01*
X5780Y8613D01*
X5776Y8610D01*
X5771Y8607D01*
X5767Y8605D01*
X5764Y8604D01*
X5760Y8603D01*
X5758Y8602D01*
X5750Y8604D01*
X5676Y8589D01*
X5613Y8547D01*
X5571Y8484D01*
X5556Y8410D01*
X5571Y8336D01*
X5613Y8273D01*
X5676Y8231D01*
X5750Y8216D01*
X5824Y8231D01*
X5887Y8273D01*
X5929Y8336D01*
X5944Y8410D01*
X5942Y8418D01*
X5943Y8420D01*
X5944Y8424D01*
X5945Y8427D01*
X5947Y8431D01*
X5950Y8436D01*
X5953Y8440D01*
X6158Y8645D01*
X15229D01*
X15454Y8419D01*
X15455Y8419D01*
X15463Y8407D01*
X15470Y8392D01*
X15477Y8372D01*
X15484Y8349D01*
X15489Y8323D01*
X15493Y8293D01*
X15498Y8220D01*
X15499Y8190D01*
X15497Y8177D01*
X15510Y8080D01*
X15547Y7990D01*
X15606Y7913D01*
X15683Y7854D01*
X15773Y7816D01*
X15834Y7808D01*
Y7758D01*
X15773Y7750D01*
X15683Y7713D01*
X15606Y7653D01*
X15601Y7646D01*
X15584Y7631D01*
X15527Y7584D01*
X15502Y7566D01*
X15478Y7551D01*
X15456Y7539D01*
X15437Y7531D01*
X15421Y7525D01*
X15407Y7522D01*
X15407Y7522D01*
X7185D01*
X7180Y7523D01*
X7175Y7524D01*
X7170Y7526D01*
X7167Y7527D01*
X7164Y7529D01*
X7162Y7530D01*
X7157Y7537D01*
X7094Y7579D01*
X7020Y7594D01*
X6946Y7579D01*
X6883Y7537D01*
X6841Y7474D01*
X6826Y7400D01*
X6841Y7326D01*
X6883Y7263D01*
X6946Y7221D01*
X7020Y7206D01*
X7094Y7221D01*
X7157Y7263D01*
X7162Y7270D01*
X7164Y7271D01*
X7167Y7273D01*
X7170Y7274D01*
X7175Y7276D01*
X7180Y7277D01*
X7185Y7278D01*
X15403D01*
X15404Y7278D01*
X15418Y7275D01*
X15434Y7269D01*
X15452Y7261D01*
X15472Y7249D01*
X15494Y7234D01*
X15517Y7216D01*
X15569Y7167D01*
X15596Y7139D01*
X15606Y7125D01*
X15683Y7066D01*
X15773Y7029D01*
X15834Y7021D01*
Y6970D01*
X15773Y6962D01*
X15683Y6925D01*
X15606Y6866D01*
X15547Y6789D01*
X15510Y6699D01*
X15497Y6602D01*
X15510Y6505D01*
X15547Y6415D01*
X15606Y6338D01*
X15683Y6279D01*
X15773Y6241D01*
X15826Y6235D01*
X15823Y6185D01*
X15500D01*
Y5445D01*
X16240D01*
Y6185D01*
X15917D01*
X15914Y6235D01*
X15967Y6241D01*
X16057Y6279D01*
X16134Y6338D01*
X16193Y6415D01*
X16230Y6505D01*
X16243Y6602D01*
X16230Y6699D01*
X16193Y6789D01*
X16134Y6866D01*
X16057Y6925D01*
X15967Y6962D01*
X15906Y6970D01*
Y7021D01*
X15967Y7029D01*
X16057Y7066D01*
X16134Y7125D01*
X16193Y7203D01*
X16230Y7293D01*
X16243Y7389D01*
X16230Y7486D01*
X16193Y7576D01*
X16134Y7653D01*
X16057Y7713D01*
X15967Y7750D01*
X15906Y7758D01*
Y7808D01*
X15967Y7816D01*
X16057Y7854D01*
X16134Y7913D01*
X16193Y7990D01*
X16230Y8080D01*
X16243Y8177D01*
X16230Y8273D01*
X16193Y8363D01*
X16134Y8441D01*
X16057Y8500D01*
X15967Y8537D01*
X15870Y8550D01*
X15857Y8548D01*
X15826Y8548D01*
X15754Y8553D01*
X15724Y8558D01*
X15697Y8563D01*
X15674Y8569D01*
X15655Y8577D01*
X15640Y8584D01*
X15628Y8592D01*
X15627Y8592D01*
X15366Y8854D01*
X15326Y8880D01*
X15279Y8890D01*
D02*
G37*
G36*
X10875Y1410D02*
X10745D01*
Y1075D01*
X11080D01*
Y1205D01*
X10875Y1410D01*
D02*
G37*
G36*
X10595D02*
X10465D01*
X10260Y1205D01*
Y1075D01*
X10595D01*
Y1410D01*
D02*
G37*
G36*
X9875D02*
X9745D01*
Y1075D01*
X10080D01*
Y1205D01*
X9875Y1410D01*
D02*
G37*
G36*
X9595D02*
X9465D01*
X9260Y1205D01*
Y1075D01*
X9595D01*
Y1410D01*
D02*
G37*
G36*
X18870Y1400D02*
X18470D01*
X18270Y1200D01*
Y800D01*
X18470Y600D01*
X18870D01*
X19070Y800D01*
Y1200D01*
X18870Y1400D01*
D02*
G37*
G36*
X17870D02*
X17470D01*
X17270Y1200D01*
Y800D01*
X17470Y600D01*
X17870D01*
X18070Y800D01*
Y1200D01*
X17870Y1400D01*
D02*
G37*
G36*
X16870D02*
X16470D01*
X16270Y1200D01*
Y800D01*
X16470Y600D01*
X16870D01*
X17070Y800D01*
Y1200D01*
X16870Y1400D01*
D02*
G37*
G36*
X15870D02*
X15470D01*
X15270Y1200D01*
Y800D01*
X15470Y600D01*
X15870D01*
X16070Y800D01*
Y1200D01*
X15870Y1400D01*
D02*
G37*
G36*
X14870D02*
X14470D01*
X14270Y1200D01*
Y800D01*
X14470Y600D01*
X14870D01*
X15070Y800D01*
Y1200D01*
X14870Y1400D01*
D02*
G37*
G36*
X13870D02*
X13470D01*
X13270Y1200D01*
Y800D01*
X13470Y600D01*
X13870D01*
X14070Y800D01*
Y1200D01*
X13870Y1400D01*
D02*
G37*
G36*
X11870D02*
X11470D01*
X11270Y1200D01*
Y800D01*
X11470Y600D01*
X11870D01*
X12070Y800D01*
Y1200D01*
X11870Y1400D01*
D02*
G37*
G36*
X8870D02*
X8470D01*
X8270Y1200D01*
Y800D01*
X8470Y600D01*
X8870D01*
X9070Y800D01*
Y1200D01*
X8870Y1400D01*
D02*
G37*
G36*
X7870D02*
X7470D01*
X7270Y1200D01*
Y800D01*
X7470Y600D01*
X7870D01*
X8070Y800D01*
Y1200D01*
X7870Y1400D01*
D02*
G37*
G36*
X6870D02*
X6470D01*
X6270Y1200D01*
Y800D01*
X6470Y600D01*
X6870D01*
X7070Y800D01*
Y1200D01*
X6870Y1400D01*
D02*
G37*
G36*
X5870D02*
X5470D01*
X5270Y1200D01*
Y800D01*
X5470Y600D01*
X5870D01*
X6070Y800D01*
Y1200D01*
X5870Y1400D01*
D02*
G37*
G36*
X4870D02*
X4470D01*
X4270Y1200D01*
Y800D01*
X4470Y600D01*
X4870D01*
X5070Y800D01*
Y1200D01*
X4870Y1400D01*
D02*
G37*
G36*
X11080Y925D02*
X10745D01*
Y590D01*
X10875D01*
X11080Y795D01*
Y925D01*
D02*
G37*
G36*
X10595D02*
X10260D01*
Y795D01*
X10465Y590D01*
X10595D01*
Y925D01*
D02*
G37*
G36*
X10080D02*
X9745D01*
Y590D01*
X9875D01*
X10080Y795D01*
Y925D01*
D02*
G37*
G36*
X9595D02*
X9260D01*
Y795D01*
X9465Y590D01*
X9595D01*
Y925D01*
D02*
G37*
G36*
X45350Y20620D02*
X42500D01*
X42453Y20611D01*
X42413Y20585D01*
X42313Y20485D01*
X42287Y20445D01*
X42278Y20398D01*
Y20286D01*
X42231Y20267D01*
X42100Y20398D01*
X41700D01*
X41500Y20198D01*
Y19798D01*
X41700Y19598D01*
X42100D01*
X42231Y19729D01*
X42278Y19710D01*
Y19299D01*
X42213Y19235D01*
X42187Y19195D01*
X42178Y19148D01*
Y15363D01*
X42152Y15346D01*
X42107Y15278D01*
X42091Y15198D01*
X42107Y15118D01*
X42152Y15050D01*
X42220Y15005D01*
X42300Y14989D01*
X42380Y15005D01*
X42448Y15050D01*
X42493Y15118D01*
X42509Y15198D01*
X42493Y15278D01*
X42448Y15346D01*
X42422Y15363D01*
Y19097D01*
X42487Y19162D01*
X42513Y19201D01*
X42522Y19248D01*
Y19710D01*
X42569Y19729D01*
X42700Y19598D01*
X43100D01*
X43113Y19612D01*
X45788Y16937D01*
Y16010D01*
X45738Y15994D01*
X45721Y16019D01*
X45648Y16068D01*
X45563Y16085D01*
X45477Y16068D01*
X45404Y16019D01*
X45380Y15983D01*
X45151D01*
X44799Y16335D01*
X44759Y16361D01*
X44713Y16370D01*
X42903D01*
X42879Y16407D01*
X42806Y16455D01*
X42720Y16472D01*
X42634Y16455D01*
X42561Y16407D01*
X42513Y16334D01*
X42496Y16248D01*
X42513Y16162D01*
X42561Y16089D01*
X42634Y16041D01*
X42720Y16024D01*
X42806Y16041D01*
X42879Y16089D01*
X42903Y16126D01*
X44662D01*
X45013Y15774D01*
X45053Y15747D01*
X45100Y15738D01*
X45380D01*
X45404Y15702D01*
X45477Y15653D01*
X45563Y15636D01*
X45648Y15653D01*
X45721Y15702D01*
X45770Y15775D01*
X45775Y15803D01*
X45804Y15814D01*
X45829Y15816D01*
X46048Y15597D01*
Y15433D01*
X46022Y15416D01*
X45977Y15348D01*
X45961Y15268D01*
X45977Y15188D01*
X46022Y15120D01*
X46090Y15075D01*
X46170Y15059D01*
X46250Y15075D01*
X46318Y15120D01*
X46363Y15188D01*
X46379Y15268D01*
X46363Y15348D01*
X46318Y15416D01*
X46292Y15433D01*
Y15648D01*
X46283Y15695D01*
X46257Y15735D01*
X46032Y15959D01*
Y16988D01*
X46023Y17035D01*
X45997Y17075D01*
X43287Y19785D01*
X43300Y19798D01*
Y20198D01*
X43169Y20329D01*
X43188Y20376D01*
X43612D01*
X43631Y20329D01*
X43500Y20198D01*
Y19798D01*
X43700Y19598D01*
X44100D01*
X44300Y19798D01*
Y20198D01*
X44169Y20329D01*
X44188Y20376D01*
X44612D01*
X44631Y20329D01*
X44500Y20198D01*
Y19798D01*
X44700Y19598D01*
X45100D01*
X45300Y19798D01*
Y20198D01*
X45169Y20329D01*
X45188Y20376D01*
X45299D01*
X45500Y20175D01*
Y19798D01*
X45700Y19598D01*
X46100D01*
X46300Y19798D01*
Y20198D01*
X46100Y20398D01*
X45700D01*
X45662Y20360D01*
X45437Y20585D01*
X45397Y20611D01*
X45350Y20620D01*
D02*
G37*
G36*
X33515Y20428D02*
X33375D01*
Y20073D01*
X33730D01*
Y20213D01*
X33515Y20428D01*
D02*
G37*
G36*
X33225D02*
X33085D01*
X32870Y20213D01*
Y20073D01*
X33225D01*
Y20428D01*
D02*
G37*
G36*
X47100Y20398D02*
X46700D01*
X46500Y20198D01*
Y19798D01*
X46700Y19598D01*
X47100D01*
X47300Y19798D01*
Y20198D01*
X47100Y20398D01*
D02*
G37*
G36*
X38500D02*
X38100D01*
X37900Y20198D01*
Y19798D01*
X38100Y19598D01*
X38500D01*
X38700Y19798D01*
Y20198D01*
X38500Y20398D01*
D02*
G37*
G36*
X37500D02*
X37100D01*
X36900Y20198D01*
Y19798D01*
X37100Y19598D01*
X37500D01*
X37700Y19798D01*
Y20198D01*
X37500Y20398D01*
D02*
G37*
G36*
X36500D02*
X36100D01*
X35900Y20198D01*
Y19798D01*
X36100Y19598D01*
X36500D01*
X36700Y19798D01*
Y20198D01*
X36500Y20398D01*
D02*
G37*
G36*
X35500D02*
X35100D01*
X34900Y20198D01*
Y19798D01*
X35100Y19598D01*
X35500D01*
X35700Y19798D01*
Y20198D01*
X35500Y20398D01*
D02*
G37*
G36*
X34500D02*
X34100D01*
X33900Y20198D01*
Y19798D01*
X33913Y19785D01*
X33499Y19370D01*
X32451D01*
X32451Y19370D01*
X32400Y19381D01*
X32349Y19370D01*
X32306Y19342D01*
X31306Y18342D01*
X31278Y18299D01*
X31267Y18248D01*
Y10844D01*
X30877D01*
X30575Y11146D01*
X30536Y11172D01*
X30496Y11180D01*
Y11428D01*
X29804D01*
Y11264D01*
X29294D01*
X29247Y11255D01*
X29207Y11228D01*
X27063Y9085D01*
X27037Y9045D01*
X27028Y8998D01*
Y7904D01*
X27037Y7857D01*
X27063Y7817D01*
X27459Y7422D01*
X27441Y7379D01*
X27430Y7293D01*
X27441Y7208D01*
X27474Y7128D01*
X27527Y7060D01*
X27595Y7007D01*
X27675Y6974D01*
X27760Y6963D01*
X27846Y6974D01*
X27925Y7007D01*
X27994Y7060D01*
X28046Y7128D01*
X28079Y7208D01*
X28091Y7293D01*
X28079Y7379D01*
X28046Y7459D01*
X27994Y7527D01*
X27925Y7579D01*
X27846Y7612D01*
X27760Y7624D01*
X27675Y7612D01*
X27632Y7595D01*
X27272Y7954D01*
Y8947D01*
X29344Y11019D01*
X29804D01*
Y10855D01*
X30496D01*
X30496Y10855D01*
Y10855D01*
X30538Y10837D01*
X30720Y10655D01*
Y10152D01*
X31267D01*
Y9539D01*
X31063Y9335D01*
X31037Y9295D01*
X31028Y9248D01*
Y8181D01*
X30991Y8157D01*
X30943Y8084D01*
X30926Y7998D01*
X30934Y7955D01*
X30813Y7835D01*
X30787Y7795D01*
X30778Y7748D01*
Y7373D01*
X30787Y7326D01*
X30813Y7287D01*
X30938Y7162D01*
X30978Y7135D01*
X31025Y7126D01*
X31205D01*
X31229Y7076D01*
X31193Y7021D01*
X31176Y6936D01*
X31184Y6893D01*
X31073Y6782D01*
X31047Y6742D01*
X31037Y6695D01*
Y5323D01*
X31047Y5276D01*
X31073Y5236D01*
X31304Y5005D01*
Y4605D01*
X31996D01*
Y5178D01*
X31477D01*
X31282Y5374D01*
Y6645D01*
X31357Y6720D01*
X31400Y6711D01*
X31486Y6728D01*
X31559Y6777D01*
X31607Y6850D01*
X31619Y6910D01*
X31673Y6927D01*
X32022Y6578D01*
Y5771D01*
X31985Y5747D01*
X31937Y5674D01*
X31920Y5589D01*
X31937Y5503D01*
X31985Y5430D01*
X32058Y5381D01*
X32144Y5364D01*
X32230Y5381D01*
X32303Y5430D01*
X32351Y5503D01*
X32368Y5589D01*
X32351Y5674D01*
X32303Y5747D01*
X32266Y5771D01*
Y6593D01*
X32272Y6623D01*
X32263Y6670D01*
X32237Y6710D01*
X31612Y7335D01*
X31572Y7361D01*
X31525Y7370D01*
X31458D01*
X31430Y7420D01*
X31435Y7428D01*
X31773D01*
X31997Y7204D01*
X32040Y7176D01*
X32090Y7165D01*
X32800D01*
X32851Y7176D01*
X32894Y7204D01*
X33244Y7554D01*
X33272Y7597D01*
X33283Y7648D01*
Y9398D01*
X33272Y9449D01*
X33244Y9492D01*
X33113Y9623D01*
Y15818D01*
X33102Y15869D01*
X33074Y15912D01*
X32518Y16467D01*
X32524Y16498D01*
X32507Y16584D01*
X32459Y16657D01*
X32386Y16705D01*
X32300Y16722D01*
X32214Y16705D01*
X32141Y16657D01*
X32093Y16584D01*
X32076Y16498D01*
X32093Y16412D01*
X32141Y16339D01*
X32214Y16291D01*
X32300Y16274D01*
X32331Y16280D01*
X32847Y15763D01*
Y9568D01*
X32858Y9517D01*
X32886Y9474D01*
X33017Y9343D01*
Y7703D01*
X32745Y7431D01*
X32145D01*
X31922Y7654D01*
X31879Y7683D01*
X31828Y7693D01*
X31389D01*
X31371Y7719D01*
X31298Y7768D01*
X31293Y7769D01*
X31282Y7822D01*
X31309Y7839D01*
X31357Y7912D01*
X31374Y7998D01*
X31357Y8084D01*
X31309Y8157D01*
X31272Y8181D01*
Y9197D01*
X31451Y9376D01*
X31451Y9376D01*
X31494Y9404D01*
X31522Y9447D01*
X31533Y9498D01*
Y10152D01*
X31778D01*
Y8306D01*
X31741Y8282D01*
X31693Y8209D01*
X31676Y8123D01*
X31693Y8037D01*
X31741Y7964D01*
X31814Y7916D01*
X31900Y7899D01*
X31986Y7916D01*
X32059Y7964D01*
X32107Y8037D01*
X32119Y8095D01*
X32167Y8098D01*
X32178Y8047D01*
X32206Y8004D01*
X32432Y7779D01*
X32426Y7748D01*
X32443Y7662D01*
X32491Y7589D01*
X32564Y7541D01*
X32650Y7524D01*
X32736Y7541D01*
X32809Y7589D01*
X32857Y7662D01*
X32874Y7748D01*
X32857Y7834D01*
X32809Y7907D01*
X32736Y7955D01*
X32650Y7972D01*
X32619Y7966D01*
X32433Y8153D01*
Y13022D01*
X32459Y13039D01*
X32507Y13112D01*
X32524Y13198D01*
X32507Y13284D01*
X32459Y13357D01*
X32386Y13405D01*
X32300Y13422D01*
X32214Y13405D01*
X32141Y13357D01*
X32093Y13284D01*
X32076Y13198D01*
X32093Y13112D01*
X32141Y13039D01*
X32167Y13022D01*
Y8162D01*
X32117Y8158D01*
X32107Y8209D01*
X32059Y8282D01*
X32022Y8306D01*
Y10152D01*
X32080D01*
Y10844D01*
X31822D01*
Y11557D01*
X31871Y11589D01*
X31920Y11662D01*
X31937Y11748D01*
X31920Y11834D01*
X31871Y11907D01*
X31798Y11955D01*
X31713Y11972D01*
X31627Y11955D01*
X31583Y11926D01*
X31533Y11953D01*
Y18193D01*
X32465Y19126D01*
X32672D01*
X32692Y19076D01*
X32550Y18933D01*
Y18563D01*
X32735Y18378D01*
X33105D01*
X33111Y18384D01*
X33983Y17512D01*
X34023Y17485D01*
X34070Y17476D01*
X34749D01*
X34978Y17247D01*
Y17030D01*
X34730D01*
Y16290D01*
X35053D01*
X35056Y16240D01*
X35003Y16233D01*
X34913Y16196D01*
X34836Y16137D01*
X34777Y16059D01*
X34740Y15969D01*
X34727Y15873D01*
X34740Y15776D01*
X34777Y15686D01*
X34836Y15609D01*
X34913Y15550D01*
X35003Y15512D01*
X35064Y15504D01*
Y15454D01*
X35003Y15446D01*
X34913Y15409D01*
X34836Y15349D01*
X34777Y15272D01*
X34740Y15182D01*
X34727Y15085D01*
X34740Y14989D01*
X34766Y14925D01*
X33813Y13972D01*
X33787Y13932D01*
X33778Y13885D01*
Y12868D01*
X33715D01*
X33530Y12683D01*
Y12313D01*
X33715Y12128D01*
X34085D01*
X34270Y12313D01*
Y12683D01*
X34085Y12868D01*
X34022D01*
Y13835D01*
X34939Y14752D01*
X35003Y14725D01*
X35064Y14717D01*
Y14667D01*
X35003Y14659D01*
X34913Y14621D01*
X34836Y14562D01*
X34777Y14485D01*
X34740Y14395D01*
X34727Y14298D01*
X34740Y14201D01*
X34777Y14111D01*
X34836Y14034D01*
X34913Y13975D01*
X35003Y13938D01*
X35100Y13925D01*
X35197Y13938D01*
X35287Y13975D01*
X35364Y14034D01*
X35423Y14111D01*
X35460Y14201D01*
X35473Y14298D01*
X35460Y14395D01*
X35423Y14485D01*
X35364Y14562D01*
X35287Y14621D01*
X35197Y14659D01*
X35136Y14667D01*
Y14717D01*
X35197Y14725D01*
X35287Y14762D01*
X35364Y14822D01*
X35423Y14899D01*
X35460Y14989D01*
X35473Y15085D01*
X35460Y15182D01*
X35423Y15272D01*
X35364Y15349D01*
X35287Y15409D01*
X35197Y15446D01*
X35136Y15454D01*
Y15504D01*
X35197Y15512D01*
X35287Y15550D01*
X35364Y15609D01*
X35423Y15686D01*
X35450Y15750D01*
X36425D01*
X36713Y15462D01*
X36753Y15435D01*
X36800Y15426D01*
X38405D01*
X38429Y15389D01*
X38502Y15341D01*
X38588Y15324D01*
X38673Y15341D01*
X38746Y15389D01*
X38795Y15462D01*
X38812Y15548D01*
X38795Y15634D01*
X38746Y15707D01*
X38673Y15755D01*
X38588Y15772D01*
X38502Y15755D01*
X38429Y15707D01*
X38405Y15670D01*
X36851D01*
X36562Y15959D01*
X36522Y15986D01*
X36475Y15995D01*
X35462D01*
X35442Y16042D01*
X35987Y16586D01*
X36013Y16626D01*
X36022Y16673D01*
Y18228D01*
X36013Y18275D01*
X35987Y18315D01*
X35744Y18557D01*
X35750Y18563D01*
Y18933D01*
X35565Y19118D01*
X35195D01*
X35010Y18933D01*
Y18563D01*
X35195Y18378D01*
X35565D01*
X35571Y18384D01*
X35778Y18178D01*
Y16724D01*
X35516Y16462D01*
X35470Y16481D01*
Y17030D01*
X35222D01*
Y17298D01*
X35213Y17345D01*
X35187Y17385D01*
X34887Y17685D01*
X34847Y17711D01*
X34800Y17720D01*
X34120D01*
X33284Y18557D01*
X33290Y18563D01*
Y18933D01*
X33147Y19076D01*
X33168Y19126D01*
X33550D01*
X33597Y19135D01*
X33637Y19162D01*
X34087Y19612D01*
X34100Y19598D01*
X34500D01*
X34700Y19798D01*
Y20198D01*
X34500Y20398D01*
D02*
G37*
G36*
X32500D02*
X32100D01*
X31900Y20198D01*
Y19798D01*
X32100Y19598D01*
X32500D01*
X32700Y19798D01*
Y20198D01*
X32500Y20398D01*
D02*
G37*
G36*
X31500D02*
X31100D01*
X30900Y20198D01*
Y19798D01*
X31100Y19598D01*
X31500D01*
X31700Y19798D01*
Y20198D01*
X31500Y20398D01*
D02*
G37*
G36*
X30500D02*
X30100D01*
X29900Y20198D01*
Y19798D01*
X30100Y19598D01*
X30500D01*
X30700Y19798D01*
Y20198D01*
X30500Y20398D01*
D02*
G37*
G36*
X33730Y19923D02*
X33375D01*
Y19568D01*
X33515D01*
X33730Y19783D01*
Y19923D01*
D02*
G37*
G36*
X33225D02*
X32870D01*
Y19783D01*
X33085Y19568D01*
X33225D01*
Y19923D01*
D02*
G37*
G36*
X37355Y18840D02*
X37074D01*
Y18520D01*
X37355D01*
Y18840D01*
D02*
G37*
G36*
X37786D02*
X37505D01*
Y18445D01*
X37430D01*
Y18370D01*
X37074D01*
Y18050D01*
X37074D01*
X37070Y18032D01*
X37070Y18032D01*
X37070Y18001D01*
Y17711D01*
X37426D01*
Y17636D01*
X37501D01*
Y17241D01*
X37782D01*
Y17271D01*
X38421D01*
X38421Y17271D01*
X38468Y17263D01*
X38519Y17229D01*
X38605Y17212D01*
X38690Y17229D01*
X38763Y17278D01*
X38812Y17350D01*
X38829Y17436D01*
X38812Y17522D01*
X38763Y17595D01*
X38690Y17643D01*
X38605Y17661D01*
X38519Y17643D01*
X38471Y17612D01*
X38421Y17638D01*
Y18002D01*
X38248D01*
Y18080D01*
X38426D01*
Y18810D01*
X37786D01*
Y18840D01*
D02*
G37*
G36*
X37351Y17561D02*
X37070D01*
Y17241D01*
X37351D01*
Y17561D01*
D02*
G37*
G36*
X39500Y20398D02*
X39100D01*
X38900Y20198D01*
Y19798D01*
X39100Y19598D01*
X39500D01*
X39513Y19612D01*
X39578Y19547D01*
Y16219D01*
X39528Y16193D01*
X39486Y16220D01*
X39400Y16238D01*
X39345Y16227D01*
X39087Y16485D01*
X39047Y16511D01*
X39000Y16520D01*
X38300D01*
X38253Y16511D01*
X38213Y16485D01*
X38149Y16420D01*
X37683D01*
X37659Y16457D01*
X37586Y16505D01*
X37500Y16522D01*
X37414Y16505D01*
X37341Y16457D01*
X37293Y16384D01*
X37276Y16298D01*
X37293Y16212D01*
X37341Y16139D01*
X37414Y16091D01*
X37500Y16074D01*
X37586Y16091D01*
X37659Y16139D01*
X37683Y16176D01*
X38200D01*
X38247Y16185D01*
X38276Y16147D01*
X38274Y16145D01*
X38149Y16020D01*
X37251D01*
X37116Y16155D01*
X37124Y16198D01*
X37107Y16284D01*
X37059Y16357D01*
X36986Y16405D01*
X36900Y16422D01*
X36814Y16405D01*
X36741Y16357D01*
X36693Y16284D01*
X36676Y16198D01*
X36693Y16112D01*
X36741Y16039D01*
X36814Y15991D01*
X36900Y15974D01*
X36943Y15982D01*
X37113Y15812D01*
X37153Y15785D01*
X37200Y15776D01*
X38200D01*
X38247Y15785D01*
X38287Y15812D01*
X38413Y15938D01*
X38767D01*
X38791Y15902D01*
X38864Y15853D01*
X38950Y15836D01*
X39036Y15853D01*
X39109Y15902D01*
X39138Y15946D01*
X39191Y15935D01*
X39193Y15927D01*
X39241Y15855D01*
X39314Y15806D01*
X39400Y15789D01*
X39486Y15806D01*
X39528Y15834D01*
X39578Y15807D01*
Y15681D01*
X39541Y15657D01*
X39493Y15584D01*
X39476Y15498D01*
X39493Y15412D01*
X39541Y15339D01*
X39614Y15291D01*
X39700Y15274D01*
X39786Y15291D01*
X39859Y15339D01*
X39907Y15412D01*
X39924Y15498D01*
X39907Y15584D01*
X39859Y15657D01*
X39822Y15681D01*
Y19598D01*
X39813Y19645D01*
X39787Y19685D01*
X39687Y19785D01*
X39700Y19798D01*
Y20198D01*
X39500Y20398D01*
D02*
G37*
G36*
X28720Y16821D02*
X27980D01*
Y16081D01*
X28720D01*
Y16821D01*
D02*
G37*
G36*
X41100Y20398D02*
X40700D01*
X40500Y20198D01*
Y19798D01*
X40700Y19598D01*
X41100D01*
X41113Y19612D01*
X41278Y19447D01*
Y16181D01*
X41241Y16157D01*
X41193Y16084D01*
X41176Y15998D01*
X41193Y15912D01*
X41241Y15839D01*
X41314Y15791D01*
X41400Y15774D01*
X41486Y15791D01*
X41559Y15839D01*
X41607Y15912D01*
X41624Y15998D01*
X41621Y16013D01*
X41667Y16028D01*
X41712Y15960D01*
X41780Y15915D01*
X41860Y15899D01*
X41940Y15915D01*
X42008Y15960D01*
X42053Y16028D01*
X42069Y16108D01*
X42053Y16188D01*
X42008Y16256D01*
X41982Y16273D01*
Y19123D01*
X42008Y19140D01*
X42053Y19208D01*
X42069Y19288D01*
X42053Y19368D01*
X42008Y19436D01*
X41940Y19481D01*
X41860Y19497D01*
X41780Y19481D01*
X41712Y19436D01*
X41667Y19368D01*
X41651Y19288D01*
X41667Y19208D01*
X41712Y19140D01*
X41738Y19123D01*
Y16273D01*
X41712Y16256D01*
X41667Y16188D01*
X41651Y16108D01*
X41653Y16099D01*
X41607Y16084D01*
X41559Y16157D01*
X41522Y16181D01*
Y19498D01*
X41513Y19545D01*
X41487Y19585D01*
X41287Y19785D01*
X41300Y19798D01*
Y20198D01*
X41100Y20398D01*
D02*
G37*
G36*
X28350Y15840D02*
X28253Y15827D01*
X28163Y15790D01*
X28086Y15730D01*
X28027Y15653D01*
X27990Y15563D01*
X27977Y15467D01*
X27990Y15370D01*
X28027Y15280D01*
X28086Y15203D01*
X28163Y15143D01*
X28253Y15106D01*
X28350Y15093D01*
X28447Y15106D01*
X28537Y15143D01*
X28614Y15203D01*
X28673Y15280D01*
X28710Y15370D01*
X28723Y15467D01*
X28710Y15563D01*
X28673Y15653D01*
X28614Y15730D01*
X28537Y15790D01*
X28447Y15827D01*
X28350Y15840D01*
D02*
G37*
G36*
X36340Y14943D02*
X36060D01*
Y14623D01*
X36340D01*
Y14943D01*
D02*
G37*
G36*
X47091Y14893D02*
X46810D01*
Y14573D01*
X47091D01*
Y14893D01*
D02*
G37*
G36*
X41390Y14693D02*
X41109D01*
Y14373D01*
X41390D01*
Y14693D01*
D02*
G37*
G36*
X28350Y14855D02*
X28253Y14843D01*
X28163Y14805D01*
X28086Y14746D01*
X28027Y14669D01*
X27990Y14579D01*
X27977Y14482D01*
X27990Y14386D01*
X28027Y14296D01*
X28086Y14218D01*
X28163Y14159D01*
X28253Y14122D01*
X28350Y14109D01*
X28447Y14122D01*
X28537Y14159D01*
X28614Y14218D01*
X28673Y14296D01*
X28710Y14386D01*
X28723Y14482D01*
X28710Y14579D01*
X28673Y14669D01*
X28614Y14746D01*
X28537Y14805D01*
X28447Y14843D01*
X28350Y14855D01*
D02*
G37*
G36*
X47091Y14423D02*
X46810D01*
Y14103D01*
X47091D01*
Y14423D01*
D02*
G37*
G36*
X45650Y15472D02*
X45564Y15455D01*
X45491Y15407D01*
X45443Y15334D01*
X45426Y15248D01*
X45443Y15162D01*
X45491Y15089D01*
X45497Y15086D01*
Y14913D01*
X45509Y14855D01*
X45542Y14805D01*
X45739Y14608D01*
Y14133D01*
X45912D01*
Y13863D01*
X45739D01*
Y13133D01*
X46379D01*
Y13103D01*
X46660D01*
Y13498D01*
Y13893D01*
X46379D01*
Y13863D01*
X46218D01*
Y14133D01*
X46379D01*
Y14103D01*
X46660D01*
Y14498D01*
Y14893D01*
X46379D01*
Y14863D01*
X45916D01*
X45803Y14977D01*
Y15086D01*
X45809Y15089D01*
X45857Y15162D01*
X45874Y15248D01*
X45857Y15334D01*
X45809Y15407D01*
X45736Y15455D01*
X45650Y15472D01*
D02*
G37*
G36*
X41821Y14693D02*
X41540D01*
Y14298D01*
X41465D01*
Y14223D01*
X41109D01*
Y13903D01*
X41109D01*
Y13893D01*
X41109D01*
Y13573D01*
X41465D01*
Y13498D01*
X41540D01*
Y13103D01*
X41821D01*
Y13133D01*
X42460D01*
Y13863D01*
X42288D01*
Y13933D01*
X42460D01*
Y13945D01*
X42638D01*
X42641Y13939D01*
X42714Y13891D01*
X42800Y13874D01*
X42886Y13891D01*
X42959Y13939D01*
X43007Y14012D01*
X43024Y14098D01*
X43007Y14184D01*
X42959Y14257D01*
X42886Y14305D01*
X42800Y14322D01*
X42714Y14305D01*
X42641Y14257D01*
X42638Y14251D01*
X42460D01*
Y14663D01*
X41821D01*
Y14693D01*
D02*
G37*
G36*
X36771Y14943D02*
X36490D01*
Y14548D01*
X36415D01*
Y14473D01*
X36060D01*
Y14153D01*
X36060D01*
Y14143D01*
X36060D01*
Y13823D01*
X36415D01*
Y13748D01*
X36490D01*
Y13353D01*
X36747D01*
Y13160D01*
X36741Y13157D01*
X36693Y13084D01*
X36676Y12998D01*
X36693Y12912D01*
X36741Y12839D01*
X36814Y12791D01*
X36900Y12774D01*
X36986Y12791D01*
X37059Y12839D01*
X37107Y12912D01*
X37124Y12998D01*
X37107Y13084D01*
X37059Y13157D01*
X37053Y13160D01*
Y13383D01*
X37411D01*
Y13595D01*
X37450D01*
X37509Y13607D01*
X37558Y13640D01*
X37793Y13875D01*
X37800Y13874D01*
X37886Y13891D01*
X37959Y13939D01*
X38007Y14012D01*
X38024Y14098D01*
X38007Y14184D01*
X37959Y14257D01*
X37886Y14305D01*
X37800Y14322D01*
X37714Y14305D01*
X37641Y14257D01*
X37593Y14184D01*
X37576Y14098D01*
X37577Y14091D01*
X37457Y13971D01*
X37411Y13990D01*
Y14113D01*
X37238D01*
Y14183D01*
X37411D01*
Y14913D01*
X36771D01*
Y14943D01*
D02*
G37*
G36*
X47091Y13893D02*
X46810D01*
Y13573D01*
X47091D01*
Y13893D01*
D02*
G37*
G36*
X36340Y13673D02*
X36060D01*
Y13353D01*
X36340D01*
Y13673D01*
D02*
G37*
G36*
X48100Y20398D02*
X47700D01*
X47500Y20198D01*
Y19798D01*
X47700Y19598D01*
X47778D01*
Y13799D01*
X47137Y13158D01*
X47091Y13177D01*
Y13423D01*
X46810D01*
Y13103D01*
X47016D01*
X47035Y13057D01*
X46943Y12964D01*
X46900Y12972D01*
X46814Y12955D01*
X46741Y12907D01*
X46693Y12834D01*
X46676Y12748D01*
X46693Y12662D01*
X46741Y12589D01*
X46814Y12541D01*
X46900Y12524D01*
X46986Y12541D01*
X47059Y12589D01*
X47107Y12662D01*
X47124Y12748D01*
X47116Y12791D01*
X47233Y12908D01*
X47272Y12876D01*
X47259Y12857D01*
X47247Y12798D01*
Y12410D01*
X47241Y12407D01*
X47238Y12401D01*
X46562D01*
X46559Y12407D01*
X46486Y12455D01*
X46400Y12472D01*
X46314Y12455D01*
X46241Y12407D01*
X46193Y12334D01*
X46176Y12248D01*
X46193Y12162D01*
X46241Y12089D01*
X46314Y12041D01*
X46400Y12024D01*
X46486Y12041D01*
X46559Y12089D01*
X46562Y12095D01*
X47238D01*
X47241Y12089D01*
X47314Y12041D01*
X47400Y12024D01*
X47486Y12041D01*
X47559Y12089D01*
X47607Y12162D01*
X47624Y12248D01*
X47607Y12334D01*
X47559Y12407D01*
X47553Y12410D01*
Y12735D01*
X47793Y12975D01*
X47800Y12974D01*
X47886Y12991D01*
X47959Y13039D01*
X48007Y13112D01*
X48024Y13198D01*
X48007Y13284D01*
X47959Y13357D01*
X47886Y13405D01*
X47815Y13419D01*
X47793Y13468D01*
X47987Y13662D01*
X48013Y13701D01*
X48022Y13748D01*
Y19598D01*
X48100D01*
X48300Y19798D01*
Y20198D01*
X48100Y20398D01*
D02*
G37*
G36*
X28350Y13871D02*
X28253Y13859D01*
X28163Y13821D01*
X28086Y13762D01*
X28027Y13685D01*
X27990Y13595D01*
X27977Y13498D01*
X27990Y13401D01*
X28027Y13311D01*
X28086Y13234D01*
X28163Y13175D01*
X28253Y13138D01*
X28350Y13125D01*
X28447Y13138D01*
X28537Y13175D01*
X28614Y13234D01*
X28673Y13311D01*
X28710Y13401D01*
X28723Y13498D01*
X28710Y13595D01*
X28673Y13685D01*
X28614Y13762D01*
X28537Y13821D01*
X28447Y13859D01*
X28350Y13871D01*
D02*
G37*
G36*
X41390Y13423D02*
X41109D01*
Y13103D01*
X41390D01*
Y13423D01*
D02*
G37*
G36*
X36335Y12868D02*
X35965D01*
X35780Y12683D01*
Y12313D01*
X35965Y12128D01*
X36335D01*
X36520Y12313D01*
Y12683D01*
X36335Y12868D01*
D02*
G37*
G36*
X34943Y11456D02*
X34662D01*
Y11136D01*
X34943D01*
Y11456D01*
D02*
G37*
G36*
Y10986D02*
X34662D01*
Y10666D01*
X34943D01*
Y10986D01*
D02*
G37*
G36*
X47850Y10472D02*
X47764Y10455D01*
X47691Y10407D01*
X47653Y10349D01*
X47648Y10347D01*
X47602D01*
X47597Y10349D01*
X47559Y10407D01*
X47486Y10455D01*
X47400Y10472D01*
X47314Y10455D01*
X47241Y10407D01*
X47193Y10334D01*
X47176Y10248D01*
X47177Y10241D01*
X46799Y9863D01*
X46490D01*
Y9133D01*
X46662D01*
Y8863D01*
X46490D01*
Y8133D01*
X47129D01*
Y8103D01*
X47410D01*
Y8498D01*
Y8893D01*
X47129D01*
Y8863D01*
X46968D01*
Y9133D01*
X47129D01*
Y9103D01*
X47410D01*
Y9498D01*
Y9893D01*
X47327D01*
X47308Y9940D01*
X47393Y10025D01*
X47400Y10024D01*
X47486Y10041D01*
X47559Y10089D01*
X47597Y10147D01*
X47602Y10149D01*
X47648D01*
X47653Y10147D01*
X47691Y10089D01*
X47764Y10041D01*
X47789Y10036D01*
X47858Y9967D01*
X47856Y9906D01*
X47840Y9893D01*
X47828Y9893D01*
X47560D01*
Y9498D01*
Y9103D01*
X47828D01*
X47840Y9103D01*
X47878Y9072D01*
Y8924D01*
X47840Y8893D01*
X47828Y8893D01*
X47560D01*
Y8498D01*
Y8103D01*
X47828D01*
X47840Y8103D01*
X47878Y8072D01*
Y8063D01*
X47882Y8040D01*
X47887Y8017D01*
X47887Y8017D01*
X47887Y8017D01*
X47900Y7996D01*
X47913Y7977D01*
X48012Y7878D01*
Y7763D01*
X47821D01*
Y7793D01*
X47540D01*
Y7398D01*
X47465D01*
Y7323D01*
X47109D01*
Y7003D01*
X47109D01*
Y6993D01*
X47109D01*
Y6673D01*
X47465D01*
Y6598D01*
X47540D01*
Y6203D01*
X47821D01*
Y6233D01*
X48460D01*
Y6963D01*
X48257D01*
Y7033D01*
X48460D01*
Y7763D01*
X48257D01*
Y7929D01*
X48252Y7951D01*
X48248Y7976D01*
X48248Y7976D01*
X48248Y7976D01*
X48235Y7995D01*
X48221Y8015D01*
X48122Y8114D01*
Y9998D01*
X48113Y10045D01*
X48087Y10085D01*
X48038Y10133D01*
X48057Y10162D01*
X48074Y10248D01*
X48057Y10334D01*
X48009Y10407D01*
X47936Y10455D01*
X47850Y10472D01*
D02*
G37*
G36*
X43088Y12901D02*
X37374D01*
X37316Y12889D01*
X37266Y12856D01*
X35863Y11453D01*
X35835Y11448D01*
X35803Y11426D01*
X35374D01*
Y11456D01*
X35093D01*
Y11061D01*
Y10666D01*
X35374D01*
Y10696D01*
X35501D01*
X35529Y10646D01*
X35515Y10577D01*
X35531Y10497D01*
X35574Y10433D01*
Y9762D01*
X35585Y9703D01*
X35619Y9654D01*
X35653Y9620D01*
Y7185D01*
X35630Y7151D01*
X35501D01*
Y7363D01*
X34862D01*
Y7393D01*
X34581D01*
Y6998D01*
Y6603D01*
X34862D01*
Y6633D01*
X35501D01*
Y6845D01*
X35761D01*
X35806Y6836D01*
X35886Y6852D01*
X35891Y6856D01*
X35896Y6857D01*
X35918Y6871D01*
X35968Y6845D01*
Y6487D01*
X35467Y5986D01*
X34765D01*
Y6159D01*
X34035D01*
Y5986D01*
X33765D01*
Y6159D01*
X33035D01*
Y5986D01*
X32812D01*
X32809Y5991D01*
X32736Y6040D01*
X32650Y6057D01*
X32564Y6040D01*
X32491Y5991D01*
X32443Y5918D01*
X32426Y5833D01*
X32443Y5747D01*
X32491Y5674D01*
X32497Y5670D01*
Y3561D01*
X32407Y3471D01*
X32400Y3472D01*
X32314Y3455D01*
X32241Y3407D01*
X32193Y3334D01*
X32176Y3248D01*
X32193Y3162D01*
X32241Y3089D01*
X32314Y3041D01*
X32400Y3024D01*
X32486Y3041D01*
X32559Y3089D01*
X32607Y3162D01*
X32624Y3248D01*
X32623Y3255D01*
X32758Y3390D01*
X32791Y3440D01*
X32803Y3498D01*
Y5670D01*
X32809Y5674D01*
X32812Y5680D01*
X33035D01*
Y5519D01*
X33005D01*
Y5238D01*
X33400D01*
X33795D01*
Y5519D01*
X33765D01*
Y5680D01*
X34035D01*
Y5519D01*
X34005D01*
Y5238D01*
X34400D01*
X34795D01*
Y5519D01*
X34765D01*
Y5680D01*
X35530D01*
X35588Y5691D01*
X35638Y5724D01*
X36229Y6315D01*
X36262Y6365D01*
X36273Y6423D01*
Y6963D01*
X36386Y7076D01*
X36419Y7125D01*
X36431Y7184D01*
Y10685D01*
X36471Y10745D01*
X36487Y10825D01*
X36471Y10905D01*
X36426Y10973D01*
X36358Y11018D01*
X36278Y11034D01*
X36198Y11018D01*
X36130Y10973D01*
X36085Y10905D01*
X36069Y10825D01*
X36085Y10745D01*
X36125Y10685D01*
Y7247D01*
X36036Y7159D01*
X35975Y7162D01*
X35973Y7164D01*
X35958Y7185D01*
Y9683D01*
X35947Y9742D01*
X35914Y9791D01*
X35880Y9825D01*
Y10441D01*
X35917Y10497D01*
X35933Y10577D01*
X35919Y10646D01*
X35947Y10696D01*
X36013D01*
Y11180D01*
X36041Y11198D01*
X37438Y12595D01*
X43024D01*
X43177Y12442D01*
X43176Y12436D01*
X43193Y12350D01*
X43241Y12277D01*
X43247Y12273D01*
Y11611D01*
X42542Y10906D01*
X42509Y10857D01*
X42497Y10798D01*
X42509Y10740D01*
X42542Y10690D01*
X42542Y10689D01*
Y10288D01*
X42492Y10283D01*
X42482Y10334D01*
X42434Y10407D01*
X42361Y10455D01*
X42275Y10472D01*
X42189Y10455D01*
X42116Y10407D01*
X42072Y10341D01*
X42045Y10342D01*
X42022Y10349D01*
Y12065D01*
X42059Y12089D01*
X42107Y12162D01*
X42124Y12248D01*
X42107Y12334D01*
X42059Y12407D01*
X41986Y12455D01*
X41900Y12472D01*
X41814Y12455D01*
X41741Y12407D01*
X41693Y12334D01*
X41676Y12248D01*
X41693Y12162D01*
X41741Y12089D01*
X41778Y12065D01*
Y10482D01*
X41728Y10455D01*
X41710Y10466D01*
Y10998D01*
X41705Y11020D01*
X41702Y11042D01*
X41701Y11043D01*
X41701Y11045D01*
X41688Y11063D01*
X41676Y11082D01*
X40615Y12200D01*
X40624Y12248D01*
X40607Y12334D01*
X40559Y12407D01*
X40486Y12455D01*
X40400Y12472D01*
X40314Y12455D01*
X40241Y12407D01*
X40193Y12334D01*
X40176Y12248D01*
X40193Y12162D01*
X40241Y12089D01*
X40314Y12041D01*
X40400Y12024D01*
X40437Y12031D01*
X41465Y10949D01*
Y10431D01*
X41429Y10407D01*
X41380Y10334D01*
X41363Y10248D01*
X41380Y10162D01*
X41429Y10089D01*
X41502Y10041D01*
X41588Y10024D01*
X41673Y10041D01*
X41728Y10077D01*
X41778Y10053D01*
Y5193D01*
X41728Y5169D01*
X41673Y5205D01*
X41588Y5222D01*
X41502Y5205D01*
X41429Y5157D01*
X41425Y5151D01*
X40900D01*
X40841Y5139D01*
X40792Y5106D01*
X37907Y2221D01*
X37900Y2222D01*
X37814Y2205D01*
X37741Y2157D01*
X37693Y2084D01*
X37676Y1998D01*
X37677Y1991D01*
X37084Y1398D01*
X36700D01*
X36500Y1198D01*
Y798D01*
X36700Y598D01*
X37100D01*
X37300Y798D01*
Y1182D01*
X37893Y1775D01*
X37900Y1774D01*
X37986Y1791D01*
X38059Y1839D01*
X38107Y1912D01*
X38124Y1998D01*
X38123Y2005D01*
X40963Y4845D01*
X41425D01*
X41429Y4839D01*
X41502Y4791D01*
X41588Y4774D01*
X41673Y4791D01*
X41728Y4827D01*
X41778Y4803D01*
Y4443D01*
X41728Y4419D01*
X41673Y4455D01*
X41588Y4472D01*
X41502Y4455D01*
X41429Y4407D01*
X41380Y4334D01*
X41363Y4248D01*
X41380Y4162D01*
X41429Y4089D01*
X41465Y4065D01*
Y3986D01*
X40443Y2964D01*
X40400Y2972D01*
X40314Y2955D01*
X40241Y2907D01*
X40193Y2834D01*
X40176Y2748D01*
X40193Y2662D01*
X40241Y2589D01*
X40314Y2541D01*
X40400Y2524D01*
X40486Y2541D01*
X40559Y2589D01*
X40607Y2662D01*
X40624Y2748D01*
X40616Y2791D01*
X41674Y3849D01*
X41701Y3889D01*
X41710Y3936D01*
Y4030D01*
X41728Y4041D01*
X41778Y4014D01*
Y1748D01*
X41787Y1701D01*
X41813Y1662D01*
X42500Y975D01*
Y798D01*
X42700Y598D01*
X43100D01*
X43300Y798D01*
Y1198D01*
X43100Y1398D01*
X42700D01*
X42562Y1260D01*
X42022Y1799D01*
Y10147D01*
X42045Y10154D01*
X42072Y10155D01*
X42116Y10089D01*
X42153Y10065D01*
Y5248D01*
X42162Y5201D01*
X42188Y5162D01*
X42434Y4916D01*
X42426Y4873D01*
X42443Y4787D01*
X42491Y4714D01*
X42564Y4666D01*
X42650Y4649D01*
X42736Y4666D01*
X42809Y4714D01*
X42857Y4787D01*
X42874Y4873D01*
X42857Y4959D01*
X42809Y5032D01*
X42736Y5080D01*
X42650Y5097D01*
X42607Y5089D01*
X42397Y5299D01*
Y5407D01*
X42420Y5414D01*
X42447Y5415D01*
X42491Y5349D01*
X42564Y5301D01*
X42650Y5284D01*
X42736Y5301D01*
X42809Y5349D01*
X42857Y5422D01*
X42874Y5508D01*
X42857Y5594D01*
X42809Y5667D01*
X42772Y5691D01*
Y6234D01*
X42862Y6323D01*
X42888Y6362D01*
X42897Y6409D01*
Y7003D01*
X42934Y7027D01*
X42982Y7100D01*
X42999Y7186D01*
X42982Y7271D01*
X42934Y7344D01*
X42861Y7393D01*
X42775Y7410D01*
X42689Y7393D01*
X42616Y7344D01*
X42568Y7271D01*
X42551Y7186D01*
X42568Y7100D01*
X42616Y7027D01*
X42653Y7003D01*
Y6460D01*
X42563Y6371D01*
X42537Y6331D01*
X42528Y6284D01*
Y5691D01*
X42491Y5667D01*
X42447Y5601D01*
X42420Y5602D01*
X42397Y5609D01*
Y10065D01*
X42434Y10089D01*
X42446Y10107D01*
X42488Y10084D01*
X42471Y9998D01*
X42488Y9912D01*
X42537Y9839D01*
X42609Y9791D01*
X42649Y9783D01*
X42662Y9769D01*
Y9613D01*
X42490D01*
Y8883D01*
X42662D01*
Y8613D01*
X42490D01*
Y7883D01*
X43129D01*
Y7853D01*
X43410D01*
Y8248D01*
Y8643D01*
X43129D01*
Y8613D01*
X42968D01*
Y8883D01*
X43129D01*
Y8853D01*
X43410D01*
Y9248D01*
Y9643D01*
X43129D01*
Y9613D01*
X42968D01*
Y9833D01*
X42957Y9891D01*
X42924Y9941D01*
X42911Y9954D01*
X42920Y9998D01*
X42903Y10084D01*
X42854Y10157D01*
X42848Y10160D01*
Y10753D01*
X42844Y10775D01*
X43508Y11440D01*
X43541Y11489D01*
X43553Y11548D01*
Y12273D01*
X43559Y12277D01*
X43607Y12350D01*
X43624Y12436D01*
X43607Y12521D01*
X43559Y12594D01*
X43486Y12643D01*
X43400Y12660D01*
X43393Y12659D01*
X43196Y12856D01*
X43146Y12889D01*
X43088Y12901D01*
D02*
G37*
G36*
X29430Y9946D02*
Y9573D01*
X29803D01*
X29797Y9617D01*
X29752Y9727D01*
X29679Y9822D01*
X29584Y9895D01*
X29473Y9941D01*
X29430Y9946D01*
D02*
G37*
G36*
X29280D02*
X29236Y9941D01*
X29126Y9895D01*
X29031Y9822D01*
X28958Y9727D01*
X28912Y9617D01*
X28906Y9573D01*
X29280D01*
Y9946D01*
D02*
G37*
G36*
X43840Y9643D02*
X43560D01*
Y9323D01*
X43840D01*
Y9643D01*
D02*
G37*
G36*
X29803Y9423D02*
X29430D01*
Y9050D01*
X29473Y9055D01*
X29584Y9101D01*
X29679Y9174D01*
X29752Y9269D01*
X29797Y9379D01*
X29803Y9423D01*
D02*
G37*
G36*
X29280D02*
X28906D01*
X28912Y9379D01*
X28958Y9269D01*
X29031Y9174D01*
X29126Y9101D01*
X29236Y9055D01*
X29280Y9050D01*
Y9423D01*
D02*
G37*
G36*
X28744Y9198D02*
X28659Y9187D01*
X28579Y9154D01*
X28511Y9102D01*
X28458Y9033D01*
X28441Y8990D01*
X28064D01*
X28046Y9033D01*
X27994Y9102D01*
X27925Y9154D01*
X27846Y9187D01*
X27760Y9198D01*
X27675Y9187D01*
X27595Y9154D01*
X27527Y9102D01*
X27474Y9033D01*
X27441Y8954D01*
X27430Y8868D01*
X27441Y8783D01*
X27474Y8703D01*
X27527Y8635D01*
X27595Y8582D01*
X27675Y8549D01*
X27760Y8538D01*
X27846Y8549D01*
X27925Y8582D01*
X27994Y8635D01*
X28046Y8703D01*
X28064Y8746D01*
X28441D01*
X28458Y8703D01*
X28511Y8635D01*
X28579Y8582D01*
X28659Y8549D01*
X28744Y8538D01*
X28830Y8549D01*
X28910Y8582D01*
X28978Y8635D01*
X29031Y8703D01*
X29064Y8783D01*
X29075Y8868D01*
X29064Y8954D01*
X29031Y9033D01*
X28978Y9102D01*
X28910Y9154D01*
X28830Y9187D01*
X28744Y9198D01*
D02*
G37*
G36*
X43840Y9173D02*
X43560D01*
Y8853D01*
X43840D01*
Y9173D01*
D02*
G37*
G36*
X38400Y11222D02*
X38314Y11205D01*
X38241Y11157D01*
X38193Y11084D01*
X38176Y10998D01*
X38193Y10912D01*
X38241Y10839D01*
X38278Y10815D01*
Y8734D01*
X38241Y8710D01*
X38193Y8637D01*
X38176Y8551D01*
X38193Y8465D01*
X38241Y8393D01*
X38314Y8344D01*
X38400Y8327D01*
X38486Y8344D01*
X38559Y8393D01*
X38607Y8465D01*
X38624Y8551D01*
X38607Y8637D01*
X38559Y8710D01*
X38522Y8734D01*
Y10815D01*
X38559Y10839D01*
X38607Y10912D01*
X38624Y10998D01*
X38607Y11084D01*
X38559Y11157D01*
X38486Y11205D01*
X38400Y11222D01*
D02*
G37*
G36*
X43840Y8643D02*
X43560D01*
Y8323D01*
X43840D01*
Y8643D01*
D02*
G37*
G36*
X33483Y10994D02*
X33403Y10979D01*
X33335Y10933D01*
X33290Y10865D01*
X33274Y10785D01*
X33290Y10705D01*
X33335Y10638D01*
X33403Y10592D01*
X33483Y10576D01*
X33513Y10582D01*
X34423Y9672D01*
Y8778D01*
X34433Y8731D01*
X34459Y8691D01*
X34618Y8532D01*
X34612Y8502D01*
X34628Y8422D01*
X34673Y8354D01*
X34741Y8309D01*
X34821Y8293D01*
X34901Y8309D01*
X34969Y8354D01*
X35014Y8422D01*
X35030Y8502D01*
X35014Y8582D01*
X34969Y8650D01*
X34901Y8695D01*
X34821Y8711D01*
X34791Y8705D01*
X34668Y8828D01*
Y9722D01*
X34659Y9769D01*
X34632Y9809D01*
X33686Y10755D01*
X33692Y10785D01*
X33676Y10865D01*
X33630Y10933D01*
X33563Y10979D01*
X33483Y10994D01*
D02*
G37*
G36*
X43840Y8173D02*
X43560D01*
Y7853D01*
X43840D01*
Y8173D01*
D02*
G37*
G36*
X28744Y8411D02*
X28659Y8400D01*
X28579Y8367D01*
X28511Y8314D01*
X28458Y8246D01*
X28425Y8166D01*
X28414Y8081D01*
X28425Y7995D01*
X28458Y7916D01*
X28511Y7847D01*
X28579Y7795D01*
X28659Y7762D01*
X28744Y7750D01*
X28830Y7762D01*
X28910Y7795D01*
X28978Y7847D01*
X29031Y7916D01*
X29064Y7995D01*
X29075Y8081D01*
X29064Y8166D01*
X29031Y8246D01*
X28978Y8314D01*
X28910Y8367D01*
X28830Y8400D01*
X28744Y8411D01*
D02*
G37*
G36*
X27760D02*
X27675Y8400D01*
X27595Y8367D01*
X27527Y8314D01*
X27474Y8246D01*
X27441Y8166D01*
X27430Y8081D01*
X27441Y7995D01*
X27474Y7916D01*
X27527Y7847D01*
X27595Y7795D01*
X27675Y7762D01*
X27760Y7750D01*
X27846Y7762D01*
X27925Y7795D01*
X27994Y7847D01*
X28046Y7916D01*
X28079Y7995D01*
X28091Y8081D01*
X28079Y8166D01*
X28046Y8246D01*
X27994Y8314D01*
X27925Y8367D01*
X27846Y8400D01*
X27760Y8411D01*
D02*
G37*
G36*
X47390Y7793D02*
X47109D01*
Y7473D01*
X47390D01*
Y7793D01*
D02*
G37*
G36*
X30496Y10641D02*
X29804D01*
Y10068D01*
X30028D01*
Y8049D01*
X29395Y7416D01*
X29048D01*
X29031Y7459D01*
X28978Y7527D01*
X28910Y7579D01*
X28830Y7612D01*
X28744Y7624D01*
X28659Y7612D01*
X28579Y7579D01*
X28511Y7527D01*
X28458Y7459D01*
X28425Y7379D01*
X28414Y7293D01*
X28425Y7208D01*
X28458Y7128D01*
X28511Y7060D01*
X28579Y7007D01*
X28659Y6974D01*
X28744Y6963D01*
X28830Y6974D01*
X28910Y7007D01*
X28978Y7060D01*
X29031Y7128D01*
X29048Y7171D01*
X29445D01*
X29492Y7180D01*
X29532Y7207D01*
X30237Y7912D01*
X30263Y7951D01*
X30272Y7998D01*
Y10068D01*
X30496D01*
Y10641D01*
D02*
G37*
G36*
X43000Y15922D02*
X42914Y15905D01*
X42841Y15857D01*
X42793Y15784D01*
X42776Y15698D01*
X42793Y15612D01*
X42841Y15539D01*
X42878Y15515D01*
Y14773D01*
X42887Y14726D01*
X42913Y14687D01*
X45440Y12160D01*
X45434Y12098D01*
X45429Y12094D01*
X45380Y12021D01*
X45363Y11936D01*
X45380Y11850D01*
X45429Y11777D01*
X45502Y11728D01*
X45588Y11711D01*
X45673Y11728D01*
X45728Y11765D01*
X45778Y11741D01*
Y10549D01*
X45313Y10085D01*
X45287Y10045D01*
X45278Y9998D01*
Y8549D01*
X44313Y7585D01*
X44287Y7545D01*
X44278Y7498D01*
Y4178D01*
X44054D01*
Y3605D01*
X44746D01*
Y4178D01*
X44522D01*
Y7447D01*
X44638Y7563D01*
X44684Y7538D01*
X44676Y7498D01*
X44693Y7412D01*
X44741Y7339D01*
X44814Y7291D01*
X44900Y7274D01*
X44986Y7291D01*
X45059Y7339D01*
X45107Y7412D01*
X45124Y7498D01*
X45116Y7541D01*
X45737Y8162D01*
X45763Y8201D01*
X45772Y8248D01*
Y9697D01*
X47493Y11418D01*
X48256Y12181D01*
X48282Y12220D01*
X48292Y12267D01*
Y12651D01*
X48328Y12676D01*
X48376Y12748D01*
X48393Y12834D01*
X48376Y12920D01*
X48328Y12993D01*
X48255Y13041D01*
X48169Y13058D01*
X48083Y13041D01*
X48011Y12993D01*
X47962Y12920D01*
X47945Y12834D01*
X47962Y12748D01*
X48011Y12676D01*
X48047Y12651D01*
Y12318D01*
X47320Y11591D01*
X45572Y9843D01*
X45538Y9852D01*
X45522Y9863D01*
Y9947D01*
X45987Y10412D01*
X46013Y10451D01*
X46022Y10498D01*
Y12498D01*
X46013Y12545D01*
X45987Y12585D01*
X45122Y13449D01*
Y13878D01*
X45159Y13902D01*
X45207Y13975D01*
X45224Y14061D01*
X45207Y14146D01*
X45159Y14219D01*
X45086Y14268D01*
X45000Y14285D01*
X44914Y14268D01*
X44841Y14219D01*
X44793Y14146D01*
X44776Y14061D01*
X44793Y13975D01*
X44841Y13902D01*
X44878Y13878D01*
Y13398D01*
X44887Y13351D01*
X44913Y13312D01*
X45778Y12447D01*
Y12170D01*
X45728Y12142D01*
X45710Y12153D01*
Y12186D01*
X45701Y12232D01*
X45674Y12272D01*
X43122Y14824D01*
Y15515D01*
X43159Y15539D01*
X43207Y15612D01*
X43224Y15698D01*
X43207Y15784D01*
X43159Y15857D01*
X43086Y15905D01*
X43000Y15922D01*
D02*
G37*
G36*
X34431Y7393D02*
X34150D01*
Y7073D01*
X34431D01*
Y7393D01*
D02*
G37*
G36*
Y6923D02*
X34150D01*
Y6603D01*
X34431D01*
Y6923D01*
D02*
G37*
G36*
X47390Y6523D02*
X47109D01*
Y6203D01*
X47390D01*
Y6523D01*
D02*
G37*
G36*
X28744Y6836D02*
X28659Y6825D01*
X28579Y6792D01*
X28511Y6740D01*
X28458Y6671D01*
X28425Y6591D01*
X28414Y6506D01*
X28425Y6420D01*
X28458Y6341D01*
X28511Y6272D01*
X28579Y6220D01*
X28659Y6187D01*
X28744Y6176D01*
X28830Y6187D01*
X28910Y6220D01*
X28978Y6272D01*
X29031Y6341D01*
X29064Y6420D01*
X29075Y6506D01*
X29064Y6591D01*
X29031Y6671D01*
X28978Y6740D01*
X28910Y6792D01*
X28830Y6825D01*
X28744Y6836D01*
D02*
G37*
G36*
X27760D02*
X27675Y6825D01*
X27595Y6792D01*
X27527Y6740D01*
X27474Y6671D01*
X27441Y6591D01*
X27430Y6506D01*
X27441Y6420D01*
X27474Y6341D01*
X27527Y6272D01*
X27595Y6220D01*
X27675Y6187D01*
X27760Y6176D01*
X27846Y6187D01*
X27925Y6220D01*
X27994Y6272D01*
X28046Y6341D01*
X28079Y6420D01*
X28091Y6506D01*
X28079Y6591D01*
X28046Y6671D01*
X27994Y6740D01*
X27925Y6792D01*
X27846Y6825D01*
X27760Y6836D01*
D02*
G37*
G36*
X46650Y6722D02*
X46564Y6705D01*
X46491Y6657D01*
X46443Y6584D01*
X46426Y6498D01*
X46443Y6412D01*
X46491Y6339D01*
X46564Y6291D01*
X46582Y6287D01*
Y6113D01*
X46421D01*
Y6143D01*
X46140D01*
Y5748D01*
Y5353D01*
X46421D01*
Y5383D01*
X46582D01*
Y5113D01*
X46421D01*
Y5143D01*
X46140D01*
Y4748D01*
Y4353D01*
X46421D01*
Y4383D01*
X46582D01*
Y3896D01*
X46157Y3471D01*
X46150Y3472D01*
X46064Y3455D01*
X45991Y3407D01*
X45943Y3334D01*
X45926Y3248D01*
X45943Y3162D01*
X45991Y3089D01*
X46064Y3041D01*
X46150Y3024D01*
X46236Y3041D01*
X46309Y3089D01*
X46357Y3162D01*
X46374Y3248D01*
X46373Y3255D01*
X46843Y3724D01*
X46876Y3774D01*
X46888Y3833D01*
Y4383D01*
X47060D01*
Y5113D01*
X46888D01*
Y5383D01*
X47060D01*
Y6113D01*
X46888D01*
Y6413D01*
X46876Y6472D01*
X46871Y6480D01*
X46874Y6498D01*
X46857Y6584D01*
X46809Y6657D01*
X46736Y6705D01*
X46650Y6722D01*
D02*
G37*
G36*
X45990Y6143D02*
X45710D01*
Y5823D01*
X45990D01*
Y6143D01*
D02*
G37*
G36*
X28744Y6049D02*
X28659Y6038D01*
X28579Y6005D01*
X28511Y5952D01*
X28458Y5884D01*
X28425Y5804D01*
X28414Y5719D01*
X28425Y5633D01*
X28458Y5553D01*
X28511Y5485D01*
X28579Y5432D01*
X28659Y5399D01*
X28744Y5388D01*
X28830Y5399D01*
X28910Y5432D01*
X28978Y5485D01*
X29031Y5553D01*
X29064Y5633D01*
X29075Y5719D01*
X29064Y5804D01*
X29031Y5884D01*
X28978Y5952D01*
X28910Y6005D01*
X28830Y6038D01*
X28744Y6049D01*
D02*
G37*
G36*
X27760D02*
X27675Y6038D01*
X27595Y6005D01*
X27527Y5952D01*
X27474Y5884D01*
X27441Y5804D01*
X27430Y5719D01*
X27441Y5633D01*
X27474Y5553D01*
X27527Y5485D01*
X27595Y5432D01*
X27675Y5399D01*
X27760Y5388D01*
X27846Y5399D01*
X27925Y5432D01*
X27994Y5485D01*
X28046Y5553D01*
X28079Y5633D01*
X28091Y5719D01*
X28079Y5804D01*
X28046Y5884D01*
X27994Y5952D01*
X27925Y6005D01*
X27846Y6038D01*
X27760Y6049D01*
D02*
G37*
G36*
X45990Y5673D02*
X45710D01*
Y5353D01*
X45990D01*
Y5673D01*
D02*
G37*
G36*
Y5143D02*
X45710D01*
Y4823D01*
X45990D01*
Y5143D01*
D02*
G37*
G36*
X34795Y5088D02*
X34475D01*
Y4808D01*
X34795D01*
Y5088D01*
D02*
G37*
G36*
X34325D02*
X34005D01*
Y4808D01*
X34325D01*
Y5088D01*
D02*
G37*
G36*
X33795D02*
X33475D01*
Y4808D01*
X33795D01*
Y5088D01*
D02*
G37*
G36*
X33325D02*
X33005D01*
Y4808D01*
X33325D01*
Y5088D01*
D02*
G37*
G36*
X28744Y5261D02*
X28659Y5250D01*
X28579Y5217D01*
X28511Y5165D01*
X28458Y5096D01*
X28425Y5017D01*
X28414Y4931D01*
X28425Y4846D01*
X28458Y4766D01*
X28511Y4698D01*
X28579Y4645D01*
X28659Y4612D01*
X28744Y4601D01*
X28830Y4612D01*
X28910Y4645D01*
X28978Y4698D01*
X29031Y4766D01*
X29032Y4769D01*
X30304D01*
Y4605D01*
X30996D01*
Y5178D01*
X30304D01*
Y5014D01*
X29064D01*
X29064Y5017D01*
X29031Y5096D01*
X28978Y5165D01*
X28910Y5217D01*
X28830Y5250D01*
X28744Y5261D01*
D02*
G37*
G36*
X27225Y4750D02*
Y4376D01*
X27598D01*
X27593Y4420D01*
X27547Y4530D01*
X27474Y4625D01*
X27379Y4698D01*
X27269Y4744D01*
X27225Y4750D01*
D02*
G37*
G36*
X27075D02*
X27031Y4744D01*
X26921Y4698D01*
X26826Y4625D01*
X26753Y4530D01*
X26707Y4420D01*
X26702Y4376D01*
X27075D01*
Y4750D01*
D02*
G37*
G36*
X45990Y4673D02*
X45710D01*
Y4353D01*
X45990D01*
Y4673D01*
D02*
G37*
G36*
X27598Y4226D02*
X27225D01*
Y3853D01*
X27269Y3859D01*
X27379Y3904D01*
X27474Y3977D01*
X27547Y4072D01*
X27593Y4183D01*
X27598Y4226D01*
D02*
G37*
G36*
X27075D02*
X26702D01*
X26707Y4183D01*
X26753Y4072D01*
X26826Y3977D01*
X26921Y3904D01*
X27031Y3859D01*
X27075Y3853D01*
Y4226D01*
D02*
G37*
G36*
X27760Y5261D02*
X27675Y5250D01*
X27595Y5217D01*
X27527Y5165D01*
X27474Y5096D01*
X27441Y5017D01*
X27430Y4931D01*
X27441Y4846D01*
X27474Y4766D01*
X27527Y4698D01*
X27595Y4645D01*
X27640Y4626D01*
X27647Y4591D01*
X27674Y4551D01*
X28063Y4162D01*
X28103Y4135D01*
X28150Y4126D01*
X30304D01*
Y3818D01*
X30996D01*
Y3982D01*
X31304D01*
Y3818D01*
X31996D01*
Y4391D01*
X31304D01*
Y4227D01*
X30996D01*
Y4391D01*
X30304D01*
Y4370D01*
X28201D01*
X27953Y4619D01*
X27956Y4668D01*
X27994Y4698D01*
X28046Y4766D01*
X28079Y4846D01*
X28091Y4931D01*
X28079Y5017D01*
X28046Y5096D01*
X27994Y5165D01*
X27925Y5217D01*
X27846Y5250D01*
X27760Y5261D01*
D02*
G37*
G36*
X38404Y6679D02*
X38318Y6662D01*
X38245Y6613D01*
X38197Y6541D01*
X38180Y6455D01*
X38197Y6369D01*
X38245Y6296D01*
X38282Y6272D01*
Y4183D01*
X38241Y4157D01*
X38193Y4084D01*
X38176Y3998D01*
X38193Y3912D01*
X38241Y3839D01*
X38314Y3791D01*
X38400Y3774D01*
X38486Y3791D01*
X38559Y3839D01*
X38607Y3912D01*
X38624Y3998D01*
X38607Y4084D01*
X38559Y4157D01*
X38526Y4178D01*
Y6272D01*
X38563Y6296D01*
X38611Y6369D01*
X38628Y6455D01*
X38611Y6541D01*
X38563Y6613D01*
X38490Y6662D01*
X38404Y6679D01*
D02*
G37*
G36*
X47900Y3798D02*
X47775D01*
Y3473D01*
X48100D01*
Y3598D01*
X47900Y3798D01*
D02*
G37*
G36*
X47625D02*
X47500D01*
X47300Y3598D01*
Y3473D01*
X47625D01*
Y3798D01*
D02*
G37*
G36*
X48100Y3323D02*
X47775D01*
Y2998D01*
X47900D01*
X48100Y3198D01*
Y3323D01*
D02*
G37*
G36*
X47625D02*
X47300D01*
Y3198D01*
X47500Y2998D01*
X47625D01*
Y3323D01*
D02*
G37*
G36*
X46209Y2919D02*
X45908D01*
Y2697D01*
X46209D01*
Y2919D01*
D02*
G37*
G36*
X45758D02*
X45458D01*
Y2697D01*
X45758D01*
Y2919D01*
D02*
G37*
G36*
X46209Y2547D02*
X45908D01*
Y2325D01*
X46209D01*
Y2547D01*
D02*
G37*
G36*
X45758D02*
X45458D01*
Y2325D01*
X45758D01*
Y2547D01*
D02*
G37*
G36*
X46179Y2141D02*
X45487D01*
Y1607D01*
X46179D01*
Y2141D01*
D02*
G37*
G36*
X40115Y1428D02*
X39975D01*
Y1073D01*
X40330D01*
Y1213D01*
X40115Y1428D01*
D02*
G37*
G36*
X39825D02*
X39685D01*
X39470Y1213D01*
Y1073D01*
X39825D01*
Y1428D01*
D02*
G37*
G36*
X39115D02*
X38975D01*
Y1073D01*
X39330D01*
Y1213D01*
X39115Y1428D01*
D02*
G37*
G36*
X38825D02*
X38685D01*
X38470Y1213D01*
Y1073D01*
X38825D01*
Y1428D01*
D02*
G37*
G36*
X48100Y1398D02*
X47700D01*
X47500Y1198D01*
Y798D01*
X47700Y598D01*
X48100D01*
X48300Y798D01*
Y1198D01*
X48100Y1398D01*
D02*
G37*
G36*
X47100D02*
X46700D01*
X46500Y1198D01*
Y798D01*
X46700Y598D01*
X47100D01*
X47300Y798D01*
Y1198D01*
X47100Y1398D01*
D02*
G37*
G36*
X46100D02*
X45700D01*
X45500Y1198D01*
Y798D01*
X45700Y598D01*
X46100D01*
X46300Y798D01*
Y1198D01*
X46100Y1398D01*
D02*
G37*
G36*
X44794Y12116D02*
X44708Y12099D01*
X44635Y12050D01*
X44586Y11978D01*
X44569Y11892D01*
X44586Y11806D01*
X44635Y11733D01*
X44671Y11709D01*
Y8482D01*
X43723Y7533D01*
X43696Y7494D01*
X43687Y7447D01*
Y2211D01*
X43696Y2164D01*
X43723Y2124D01*
X44263Y1584D01*
X44254Y1541D01*
X44271Y1455D01*
X44320Y1383D01*
X44393Y1334D01*
X44479Y1317D01*
X44565Y1334D01*
X44567Y1336D01*
X44599Y1297D01*
X44500Y1198D01*
Y798D01*
X44700Y598D01*
X45100D01*
X45300Y798D01*
Y1198D01*
X45100Y1398D01*
X45022D01*
Y1981D01*
X45312D01*
Y2515D01*
X45089D01*
Y2537D01*
X45080Y2584D01*
X45053Y2624D01*
X44746Y2932D01*
Y3391D01*
X44054D01*
Y2818D01*
X44514D01*
X44770Y2561D01*
X44751Y2515D01*
X44621D01*
Y1981D01*
X44778D01*
Y1398D01*
X44708D01*
X44674Y1437D01*
X44686Y1455D01*
X44703Y1541D01*
X44686Y1627D01*
X44637Y1700D01*
X44565Y1749D01*
X44479Y1766D01*
X44436Y1757D01*
X43932Y2261D01*
Y7396D01*
X44880Y8345D01*
X44907Y8384D01*
X44916Y8431D01*
Y11709D01*
X44952Y11733D01*
X45001Y11806D01*
X45018Y11892D01*
X45001Y11978D01*
X44952Y12050D01*
X44880Y12099D01*
X44794Y12116D01*
D02*
G37*
G36*
X42400Y3972D02*
X42314Y3955D01*
X42241Y3907D01*
X42193Y3834D01*
X42176Y3748D01*
X42193Y3662D01*
X42241Y3589D01*
X42278Y3565D01*
Y2498D01*
X42287Y2451D01*
X42313Y2412D01*
X43513Y1212D01*
X43500Y1198D01*
Y798D01*
X43700Y598D01*
X44100D01*
X44300Y798D01*
Y1198D01*
X44100Y1398D01*
X43700D01*
X43687Y1385D01*
X42522Y2549D01*
Y3565D01*
X42559Y3589D01*
X42607Y3662D01*
X42624Y3748D01*
X42607Y3834D01*
X42559Y3907D01*
X42486Y3955D01*
X42400Y3972D01*
D02*
G37*
G36*
X41100Y1398D02*
X40700D01*
X40500Y1198D01*
Y798D01*
X40700Y598D01*
X41100D01*
X41300Y798D01*
Y1198D01*
X41100Y1398D01*
D02*
G37*
G36*
X38100D02*
X37700D01*
X37500Y1198D01*
Y798D01*
X37700Y598D01*
X38100D01*
X38300Y798D01*
Y1198D01*
X38100Y1398D01*
D02*
G37*
G36*
X36100D02*
X35700D01*
X35500Y1198D01*
Y798D01*
X35700Y598D01*
X36100D01*
X36300Y798D01*
Y1198D01*
X36100Y1398D01*
D02*
G37*
G36*
X35100D02*
X34700D01*
X34500Y1198D01*
Y798D01*
X34700Y598D01*
X35100D01*
X35300Y798D01*
Y1198D01*
X35100Y1398D01*
D02*
G37*
G36*
X34100D02*
X33700D01*
X33500Y1198D01*
Y798D01*
X33700Y598D01*
X34100D01*
X34300Y798D01*
Y1198D01*
X34100Y1398D01*
D02*
G37*
G36*
X40330Y923D02*
X39975D01*
Y568D01*
X40115D01*
X40330Y783D01*
Y923D01*
D02*
G37*
G36*
X39825D02*
X39470D01*
Y783D01*
X39685Y568D01*
X39825D01*
Y923D01*
D02*
G37*
G36*
X39330D02*
X38975D01*
Y568D01*
X39115D01*
X39330Y783D01*
Y923D01*
D02*
G37*
G36*
X38825D02*
X38470D01*
Y783D01*
X38685Y568D01*
X38825D01*
Y923D01*
D02*
G37*
%LPD*%
D11*
X37200Y15898D02*
X38200D01*
X38363Y16061D02*
X38950D01*
X38200Y15898D02*
X38363Y16061D01*
X31700Y10592D02*
X31900Y10392D01*
Y8123D02*
Y10392D01*
X31700Y10592D02*
Y11736D01*
X31713Y11748D01*
X30150Y11142D02*
X30232Y11059D01*
X30489D01*
X30824Y10724D01*
X30840D01*
X31006Y10498D02*
Y10557D01*
X30840Y10724D02*
X31006Y10557D01*
X29294Y11142D02*
X30150D01*
X31525Y7248D02*
X32150Y6623D01*
X35380Y18748D02*
X35900Y18228D01*
X35380Y18748D02*
X35380D01*
X41588Y3936D02*
Y4248D01*
X40400Y2748D02*
X41588Y3936D01*
X42650Y5508D02*
Y6284D01*
X42775Y6409D02*
Y7186D01*
X42650Y6284D02*
X42775Y6409D01*
X31150Y9248D02*
X31400Y9498D01*
X39650Y19648D02*
X39700Y19598D01*
X27150Y7904D02*
Y8998D01*
Y7904D02*
X27760Y7293D01*
X27150Y8998D02*
X29294Y11142D01*
X44400Y3892D02*
Y7498D01*
X45400Y8498D01*
Y9998D01*
X45900Y10498D01*
Y12498D01*
X45000Y13398D02*
X45900Y12498D01*
X45000Y13398D02*
Y14061D01*
X37500Y16298D02*
X38200D01*
X38300Y16398D01*
X39000D01*
X27760Y8868D02*
X28744D01*
X30150Y7998D02*
Y10354D01*
X29445Y7293D02*
X30150Y7998D01*
X28744Y7293D02*
X29445D01*
X44794Y8431D02*
Y11892D01*
X43809Y7447D02*
X44794Y8431D01*
X43809Y2211D02*
Y7447D01*
Y2211D02*
X44479Y1541D01*
X44713Y16248D02*
X45100Y15861D01*
X42720Y16248D02*
X44713D01*
X45100Y15861D02*
X45563D01*
X28744Y4931D02*
X28784Y4892D01*
X30650D01*
X30506Y4248D02*
X30650Y4104D01*
X28150Y4248D02*
X30506D01*
X27760Y4638D02*
X28150Y4248D01*
X27760Y4638D02*
Y4931D01*
X30650Y4104D02*
X31650D01*
X46900Y12748D02*
X47900Y13748D01*
Y19998D01*
X44900Y998D02*
Y2181D01*
X44967Y2248D01*
Y2537D01*
X44400Y3104D02*
X44967Y2537D01*
X40900Y19998D02*
X41400Y19498D01*
Y15998D02*
Y19498D01*
X39300Y19998D02*
X39650Y19648D01*
X39700Y15498D02*
Y19598D01*
X39300Y19998D02*
X39650Y19648D01*
X31025Y7248D02*
X31525D01*
X30900Y7373D02*
X31025Y7248D01*
X30900Y7373D02*
Y7748D01*
X31150Y7998D01*
Y9248D01*
X32400Y19248D02*
X33550D01*
X34300Y19998D01*
X45650Y9748D02*
X47406Y11504D01*
X44900Y7498D02*
X45650Y8248D01*
Y9748D01*
X43000Y14773D02*
Y15698D01*
Y14773D02*
X45588Y12186D01*
Y11936D02*
Y12186D01*
X41900Y1748D02*
Y12248D01*
Y1748D02*
X42650Y998D01*
X42900D01*
X40400Y12248D02*
X41588Y10998D01*
Y10248D02*
Y10998D01*
X42400Y2498D02*
Y3748D01*
Y2498D02*
X43900Y998D01*
X48000Y8063D02*
X48135Y7929D01*
Y7398D02*
Y7929D01*
Y6598D02*
Y7398D01*
X48000Y8063D02*
Y9998D01*
X47850Y10148D02*
X48000Y9998D01*
X47850Y10148D02*
Y10248D01*
X42275Y5248D02*
X42650Y4873D01*
X42275Y5248D02*
Y10248D01*
X47485Y8498D02*
Y9498D01*
X36900Y16198D02*
X37200Y15898D01*
X33900Y13885D02*
X35100Y15085D01*
X33900Y12498D02*
Y13885D01*
X35900Y16673D02*
Y18228D01*
X35100Y15873D02*
X35900Y16673D01*
X32920Y18748D02*
X34070Y17598D01*
X34800D02*
X35100Y17298D01*
Y16660D02*
Y17298D01*
X34070Y17598D02*
X34800D01*
X36475Y15873D02*
X36800Y15548D01*
X35100Y15873D02*
X36475D01*
X36800Y15548D02*
X38588D01*
X45850Y19998D02*
X45900D01*
X42300Y19148D02*
X42400Y19248D01*
X45910Y15908D02*
X46170Y15648D01*
Y15268D02*
Y15648D01*
X42300Y15198D02*
Y19148D01*
X42400Y19248D02*
Y20398D01*
X45910Y15908D02*
Y16988D01*
X42900Y19998D02*
X45910Y16988D01*
X41860Y16108D02*
Y19288D01*
X45350Y20498D02*
X45850Y19998D01*
X42400Y20398D02*
X42500Y20498D01*
X45350D01*
X32144Y6617D02*
X32150Y6623D01*
X32144Y5589D02*
Y6617D01*
X38400Y3998D02*
X38404Y4002D01*
Y6455D01*
X38365Y10963D02*
X38400Y10998D01*
Y8551D02*
Y10927D01*
X38365Y10963D02*
X38400Y10927D01*
X48169Y12267D02*
Y12834D01*
X47406Y11504D02*
X48169Y12267D01*
X31160Y6695D02*
X31400Y6936D01*
X31591Y4892D02*
X31650D01*
X31424Y5058D02*
X31591Y4892D01*
X31160Y5323D02*
X31424Y5058D01*
X31160Y5323D02*
Y6695D01*
X31424Y5058D02*
Y5058D01*
X39000Y16398D02*
X39385Y16013D01*
X39400D01*
X34546Y8778D02*
X34821Y8502D01*
X33483Y10785D02*
X34546Y9722D01*
Y8778D02*
Y9722D01*
X5742Y9680D02*
Y12480D01*
X9650Y9560D02*
Y12485D01*
X5750Y8410D02*
X6107Y8767D01*
X15279D01*
X15870Y8177D01*
X15859Y7400D02*
X15870Y7389D01*
X7020Y7400D02*
X15859D01*
D13*
X32300Y16498D02*
X32980Y15818D01*
Y9568D02*
Y15818D01*
X33150Y7648D02*
Y9398D01*
X32980Y9568D02*
X33150Y9398D01*
X32800Y7298D02*
X33150Y7648D01*
X32090Y7298D02*
X32800D01*
X31212Y7561D02*
X31828D01*
X32090Y7298D01*
X31400Y9498D02*
Y18248D01*
X32400Y19248D01*
X32300Y8098D02*
X32650Y7748D01*
X32300Y8098D02*
Y13198D01*
D19*
X42135Y14298D02*
D03*
X41465D02*
D03*
X42135Y13498D02*
D03*
X41465D02*
D03*
X46735Y5748D02*
D03*
X46065D02*
D03*
X46735Y4748D02*
D03*
X46065D02*
D03*
X38100Y18445D02*
D03*
X37430D02*
D03*
X38095Y17636D02*
D03*
X37426D02*
D03*
X48135Y7398D02*
D03*
X47465D02*
D03*
X48135Y6598D02*
D03*
X47465D02*
D03*
X46815Y9498D02*
D03*
X47485D02*
D03*
X46815Y8498D02*
D03*
X47485D02*
D03*
X46065Y13498D02*
D03*
X46735D02*
D03*
X46065Y14498D02*
D03*
X46735D02*
D03*
X42815Y8248D02*
D03*
X43485D02*
D03*
X37085Y13748D02*
D03*
X36415D02*
D03*
X42815Y9248D02*
D03*
X43485D02*
D03*
X35687Y11061D02*
D03*
X35018D02*
D03*
X35175Y6998D02*
D03*
X34506D02*
D03*
X37085Y14548D02*
D03*
X36415D02*
D03*
D23*
X44400Y3892D02*
D03*
Y3104D02*
D03*
X31650Y4104D02*
D03*
Y4892D02*
D03*
X30650D02*
D03*
Y4104D02*
D03*
X30150Y10354D02*
D03*
Y11142D02*
D03*
D24*
X31006Y10498D02*
D03*
X31794D02*
D03*
D25*
X45833Y2622D02*
D03*
Y1874D02*
D03*
X44967Y2248D02*
D03*
D27*
X33400Y5833D02*
D03*
Y5163D02*
D03*
X34400Y5833D02*
D03*
Y5163D02*
D03*
D58*
X52000Y-3000D02*
D03*
X53000Y22000D02*
D03*
X-3000Y24000D02*
D03*
D59*
X43088Y12748D02*
X43400Y12436D01*
Y11548D02*
Y12436D01*
X42650Y10798D02*
X43400Y11548D01*
X47400Y12798D02*
X47800Y13198D01*
X47400Y12248D02*
Y12798D01*
X46650Y6498D02*
X46735Y6413D01*
Y5748D02*
Y6413D01*
Y3833D02*
Y4748D01*
Y5748D01*
X42815Y9248D02*
Y9833D01*
Y8248D02*
Y9248D01*
X46150Y3248D02*
X46735Y3833D01*
X36900Y998D02*
X37900Y1998D01*
X40900Y4998D01*
X41588D01*
X46400Y12248D02*
X47400D01*
X46815Y9663D02*
X47400Y10248D01*
X46815Y9498D02*
Y9663D01*
Y8498D02*
Y9498D01*
X37085Y13748D02*
Y14548D01*
X38295Y17436D02*
X38605D01*
X38095Y17636D02*
X38295Y17436D01*
X38095Y17636D02*
Y18440D01*
X38100Y18445D01*
X42135Y13498D02*
Y14298D01*
X42335Y14098D01*
X42800D01*
X32689Y5833D02*
X33400D01*
X34400D01*
X46065Y13498D02*
Y14498D01*
X45650Y14913D02*
X46065Y14498D01*
X45650Y14913D02*
Y15248D01*
X42650Y10798D02*
X42695Y10753D01*
Y9998D02*
Y10753D01*
Y9953D02*
X42815Y9833D01*
X42695Y9953D02*
Y9998D01*
X36900Y12998D02*
Y13563D01*
X37085Y13748D01*
X35727Y10589D02*
Y11022D01*
X35687Y11061D02*
X35727Y11022D01*
Y9762D02*
Y10589D01*
X32650Y3498D02*
Y5833D01*
X32400Y3248D02*
X32650Y3498D01*
X36278Y7184D02*
Y10825D01*
X35175Y6998D02*
X35837D01*
X35845Y7006D01*
X34400Y5833D02*
X35530D01*
X36120Y6423D02*
Y7027D01*
X36278Y7184D01*
X35530Y5833D02*
X36120Y6423D01*
X35687Y11061D02*
Y11100D01*
X37374Y12748D02*
X43088D01*
X35893Y11306D02*
X35933D01*
X35687Y11100D02*
X35893Y11306D01*
X35933D02*
X37374Y12748D01*
X37085Y13748D02*
X37450D01*
X35806Y7045D02*
Y9683D01*
X35727Y9762D02*
X35806Y9683D01*
X37450Y13748D02*
X37800Y14098D01*
X4195Y13005D02*
X7670D01*
X4180Y13020D02*
X4195Y13005D01*
D61*
X43900Y19998D02*
D03*
X42900Y998D02*
D03*
X44900Y19998D02*
D03*
X45900D02*
D03*
X46900D02*
D03*
X47900D02*
D03*
X42900D02*
D03*
X41900D02*
D03*
X40900D02*
D03*
X39300D02*
D03*
X38300D02*
D03*
X37300D02*
D03*
X36300D02*
D03*
X35300D02*
D03*
X34300D02*
D03*
X33300D02*
D03*
X32300D02*
D03*
X43900Y998D02*
D03*
X44900D02*
D03*
X45900D02*
D03*
X46900D02*
D03*
X47900D02*
D03*
X40900D02*
D03*
X39900D02*
D03*
X38900D02*
D03*
X37900D02*
D03*
X36900D02*
D03*
X35900D02*
D03*
X31300Y19998D02*
D03*
X30300D02*
D03*
X34900Y998D02*
D03*
X33900D02*
D03*
X14670Y20000D02*
D03*
X13670Y1000D02*
D03*
X15670Y20000D02*
D03*
X16670D02*
D03*
X17670D02*
D03*
X18670D02*
D03*
X13670D02*
D03*
X12670D02*
D03*
X11670D02*
D03*
X10070D02*
D03*
X9070D02*
D03*
X8070D02*
D03*
X7070D02*
D03*
X6070D02*
D03*
X5070D02*
D03*
X4070D02*
D03*
X3070D02*
D03*
X14670Y1000D02*
D03*
X15670D02*
D03*
X16670D02*
D03*
X17670D02*
D03*
X18670D02*
D03*
X11670D02*
D03*
X10670D02*
D03*
X9670D02*
D03*
X8670D02*
D03*
X7670D02*
D03*
X6670D02*
D03*
X2070Y20000D02*
D03*
X1070D02*
D03*
X5670Y1000D02*
D03*
X4670D02*
D03*
D62*
X47700Y3398D02*
D03*
X36150Y12498D02*
D03*
X33900D02*
D03*
X35380Y18748D02*
D03*
X32920D02*
D03*
D63*
X28350Y16451D02*
D03*
X35100Y16660D02*
D03*
X15670Y17643D02*
D03*
X15870Y5815D02*
D03*
D64*
X28350Y15467D02*
D03*
Y14482D02*
D03*
Y13498D02*
D03*
X35100Y15873D02*
D03*
Y15085D02*
D03*
Y14298D02*
D03*
X15670Y16659D02*
D03*
Y15674D02*
D03*
Y14690D02*
D03*
X15870Y8177D02*
D03*
Y7389D02*
D03*
Y6602D02*
D03*
D65*
X27760Y8868D02*
D03*
Y8081D02*
D03*
Y7293D02*
D03*
Y6506D02*
D03*
Y5719D02*
D03*
Y4931D02*
D03*
X28744Y8868D02*
D03*
Y8081D02*
D03*
Y7293D02*
D03*
Y6506D02*
D03*
Y5719D02*
D03*
Y4931D02*
D03*
D66*
X29355Y9498D02*
D03*
X27150Y4301D02*
D03*
D67*
X2580Y18250D02*
D03*
X1580D02*
D03*
X2580Y15775D02*
D03*
X1580D02*
D03*
D68*
X32775Y8798D02*
D03*
X42650Y5508D02*
D03*
X40850Y12448D02*
D03*
X45000Y14061D02*
D03*
X38950Y16061D02*
D03*
X37500Y16298D02*
D03*
X44794Y11892D02*
D03*
X44479Y1541D02*
D03*
X45563Y15861D02*
D03*
X42720Y16248D02*
D03*
X42775Y7186D02*
D03*
X31400Y6936D02*
D03*
X47800Y13198D02*
D03*
X37900Y1998D02*
D03*
X43400Y12436D02*
D03*
X46150Y3248D02*
D03*
X46650Y6498D02*
D03*
X41588Y4998D02*
D03*
X46400Y12248D02*
D03*
X47400Y10248D02*
D03*
X46900Y12748D02*
D03*
X31713Y11748D02*
D03*
X41400Y15998D02*
D03*
X39700Y15498D02*
D03*
X32300Y16498D02*
D03*
X31212Y7561D02*
D03*
X32300Y13198D02*
D03*
X32650Y7748D02*
D03*
X31150Y7998D02*
D03*
X44900Y7498D02*
D03*
X43000Y15698D02*
D03*
X41900Y12248D02*
D03*
X40400D02*
D03*
X41588Y10248D02*
D03*
X42400Y3748D02*
D03*
X41588Y4248D02*
D03*
X40400Y2748D02*
D03*
X42275Y10248D02*
D03*
X38400Y10998D02*
D03*
X42650Y4873D02*
D03*
X47850Y10248D02*
D03*
X42800Y14098D02*
D03*
X38605Y17436D02*
D03*
X45650Y15248D02*
D03*
X32400Y3248D02*
D03*
X25875Y12498D02*
D03*
X26175Y18398D02*
D03*
X31475Y3298D02*
D03*
X32325Y15498D02*
D03*
X36775Y19023D02*
D03*
X40830Y16128D02*
D03*
X40630Y13328D02*
D03*
X42875Y14483D02*
D03*
X46500Y12648D02*
D03*
X43970Y14713D02*
D03*
X30465Y8566D02*
D03*
X45157Y3366D02*
D03*
X44361Y2549D02*
D03*
X31369Y1904D02*
D03*
X40525Y3998D02*
D03*
X40500Y19323D02*
D03*
X34725Y13073D02*
D03*
X34428Y11848D02*
D03*
X30400Y18623D02*
D03*
X27200Y10273D02*
D03*
X30900Y9673D02*
D03*
X30333Y6297D02*
D03*
X40687Y2045D02*
D03*
X33275Y2248D02*
D03*
X35025D02*
D03*
X46435Y2675D02*
D03*
Y1888D02*
D03*
X47025Y10436D02*
D03*
X43349Y7255D02*
D03*
X45900Y7498D02*
D03*
X47400Y13748D02*
D03*
X42262Y11061D02*
D03*
X35097Y5156D02*
D03*
X36475Y6888D02*
D03*
X40275Y7498D02*
D03*
X40525Y10748D02*
D03*
X31988Y16998D02*
D03*
X32625Y12698D02*
D03*
X32613Y17623D02*
D03*
X34300Y15538D02*
D03*
X28275Y12373D02*
D03*
X30175Y13873D02*
D03*
Y16123D02*
D03*
X31775Y19373D02*
D03*
X36275Y18623D02*
D03*
X37575Y19223D02*
D03*
X38775Y19123D02*
D03*
X46825Y15223D02*
D03*
X45525Y16323D02*
D03*
X46475Y16179D02*
D03*
X34400Y18748D02*
D03*
X35775Y14123D02*
D03*
X36900Y16198D02*
D03*
X29950Y17523D02*
D03*
X30175Y14873D02*
D03*
X30213Y12473D02*
D03*
X42670Y17808D02*
D03*
X41430Y20548D02*
D03*
X45890Y20588D02*
D03*
X32144Y5589D02*
D03*
X38400Y3998D02*
D03*
X38404Y6455D02*
D03*
X38400Y8551D02*
D03*
X42695Y9998D02*
D03*
X47400Y12248D02*
D03*
X48207Y10628D02*
D03*
X48169Y12834D02*
D03*
X31672Y5589D02*
D03*
X39400Y16013D02*
D03*
X33522Y11533D02*
D03*
X36900Y12998D02*
D03*
X34939Y8935D02*
D03*
X32617Y6967D02*
D03*
X33837Y7282D02*
D03*
X33850Y4298D02*
D03*
X32650Y5833D02*
D03*
X35806Y4368D02*
D03*
X31900Y8123D02*
D03*
X38588Y15548D02*
D03*
X37800Y14098D02*
D03*
X45588Y11936D02*
D03*
D69*
X42300Y15198D02*
D03*
X46170Y15268D02*
D03*
X41860Y16108D02*
D03*
Y19288D02*
D03*
X35724Y10577D02*
D03*
X34821Y8502D02*
D03*
X36278Y10825D02*
D03*
X35806Y7045D02*
D03*
X33483Y10785D02*
D03*
D70*
X9650Y9560D02*
D03*
X5742Y12480D02*
D03*
Y9680D02*
D03*
X9650Y12485D02*
D03*
X4180Y13020D02*
D03*
X7670Y13005D02*
D03*
X7020Y7400D02*
D03*
X5750Y8410D02*
D03*
X8312Y12340D02*
D03*
X11670Y6789D02*
D03*
D71*
X6267Y11971D02*
D03*
X4180Y13616D02*
D03*
X1150Y13890D02*
D03*
X8150Y13705D02*
D03*
X10221Y11964D02*
D03*
X12570Y16170D02*
D03*
Y17059D02*
D03*
X2580Y11610D02*
D03*
X2570Y12626D02*
D03*
M02*
