G04*
G04 #@! TF.GenerationSoftware,Altium Limited,Altium Designer,20.0.13 (296)*
G04*
G04 Layer_Color=16777200*
%FSLAX24Y24*%
%MOIN*%
G70*
G01*
G75*
%ADD11C,0.0100*%
%ADD12C,0.0060*%
D11*
X48279Y998D02*
G03*
X48279Y998I-379J0D01*
G01*
X41279Y19998D02*
G03*
X41279Y19998I-379J0D01*
G01*
Y998D02*
G03*
X41279Y998I-379J0D01*
G01*
X30679Y19998D02*
G03*
X30679Y19998I-379J0D01*
G01*
X1449Y20000D02*
G03*
X1449Y20000I-379J0D01*
G01*
X12049Y1000D02*
G03*
X12049Y1000I-379J0D01*
G01*
Y20000D02*
G03*
X12049Y20000I-379J0D01*
G01*
X19049Y1000D02*
G03*
X19049Y1000I-379J0D01*
G01*
X42400Y98D02*
X42900D01*
X47900D02*
X48400D01*
X42400Y1898D02*
X48400D01*
X47900Y-152D02*
Y448D01*
X42900D02*
X47900D01*
X42900Y-202D02*
Y448D01*
X42400Y998D02*
Y2198D01*
X48400D01*
Y-202D02*
Y2198D01*
X42400Y-202D02*
X48400D01*
X42400D02*
Y998D01*
X48400Y18798D02*
Y19098D01*
X40400Y21198D02*
X40900D01*
X47900Y20898D02*
X48400D01*
X40400D02*
X40900D01*
X40400Y19098D02*
X48400D01*
X40900Y20548D02*
Y21198D01*
Y20548D02*
X47900D01*
Y21198D01*
X48400Y19098D02*
Y19998D01*
X40400Y18798D02*
X48400D01*
X40400D02*
Y21198D01*
X40900D02*
X48400D01*
Y19998D02*
Y21198D01*
X33400Y1898D02*
Y2198D01*
X40900Y-202D02*
X41400D01*
X33400Y98D02*
X33900D01*
X40900D02*
X41400D01*
X33400Y1898D02*
X41400D01*
X40900Y-202D02*
Y448D01*
X33900D02*
X40900D01*
X33900Y-202D02*
Y448D01*
X33400Y998D02*
Y1898D01*
Y2198D02*
X41400D01*
Y-202D02*
Y2198D01*
X33400Y-202D02*
X40900D01*
X33400D02*
Y998D01*
X29800Y20898D02*
X30300D01*
Y21198D01*
X39800Y18798D02*
Y19098D01*
X30300Y21198D02*
X32300D01*
X39300Y20898D02*
X39800D01*
X30300Y20548D02*
X39300D01*
Y21198D01*
X39800Y19098D02*
Y19998D01*
X31800Y18798D02*
X39800D01*
X32300Y21198D02*
X39800D01*
Y19998D02*
Y21198D01*
X29800Y18798D02*
Y21198D01*
X30300Y20548D02*
Y20898D01*
X29800Y21198D02*
X30300D01*
X29850Y19198D02*
X39800D01*
X29800Y18798D02*
X31900D01*
X39800Y19098D02*
Y19298D01*
X10570Y19100D02*
Y19300D01*
X570Y18800D02*
X2670D01*
X620Y19200D02*
X10570D01*
X570Y21200D02*
X1070D01*
Y20550D02*
Y20900D01*
X570Y18800D02*
Y21200D01*
X10570Y20000D02*
Y21200D01*
X3070D02*
X10570D01*
X2570Y18800D02*
X10570D01*
Y19100D02*
Y20000D01*
X10070Y20550D02*
Y21200D01*
X1070Y20550D02*
X10070D01*
Y20900D02*
X10570D01*
X1070Y21200D02*
X3070D01*
X10570Y18800D02*
Y19100D01*
X1070Y20900D02*
Y21200D01*
X570Y20900D02*
X1070D01*
X4170Y-200D02*
Y1000D01*
Y-200D02*
X11670D01*
X12170D02*
Y2200D01*
X4170D02*
X12170D01*
X4170Y1000D02*
Y1900D01*
X4670Y-200D02*
Y450D01*
X11670D01*
Y-200D02*
Y450D01*
X4170Y1900D02*
X12170D01*
X11670Y100D02*
X12170D01*
X4170D02*
X4670D01*
X11670Y-200D02*
X12170D01*
X4170Y1900D02*
Y2200D01*
X19170Y20000D02*
Y21200D01*
X11670D02*
X19170D01*
X11170Y18800D02*
Y21200D01*
Y18800D02*
X19170D01*
Y19100D02*
Y20000D01*
X18670Y20550D02*
Y21200D01*
X11670Y20550D02*
X18670D01*
X11670D02*
Y21200D01*
X11170Y19100D02*
X19170D01*
X11170Y20900D02*
X11670D01*
X18670D02*
X19170D01*
X11170Y21200D02*
X11670D01*
X19170Y18800D02*
Y19100D01*
X13170Y-200D02*
Y1000D01*
Y-200D02*
X19170D01*
Y2200D01*
X13170D02*
X19170D01*
X13170Y1000D02*
Y2200D01*
X13670Y-200D02*
Y450D01*
X18670D01*
Y-150D02*
Y450D01*
X13170Y1900D02*
X19170D01*
X18670Y100D02*
X19170D01*
X13170D02*
X13670D01*
D12*
X41030Y14688D02*
X42580D01*
X41030Y13908D02*
Y14688D01*
Y13908D02*
X42580D01*
Y14688D01*
X41030Y13888D02*
X42580D01*
X41030Y13108D02*
Y13888D01*
Y13108D02*
X42580D01*
Y13888D01*
X44010Y2718D02*
X44790D01*
X44010D02*
Y4268D01*
X44790D01*
Y2718D02*
Y4268D01*
X31260Y5278D02*
X32040D01*
Y3728D02*
Y5278D01*
X31260Y3728D02*
X32040D01*
X31260D02*
Y5278D01*
X30260Y3718D02*
X31040D01*
X30260D02*
Y5268D01*
X31040D01*
Y3718D02*
Y5268D01*
X32180Y10108D02*
Y10888D01*
X30630Y10108D02*
X32180D01*
X30630D02*
Y10888D01*
X32180D01*
X29760Y11528D02*
X30540D01*
Y9978D02*
Y11528D01*
X29760Y9978D02*
X30540D01*
X29760D02*
Y11528D01*
X45660Y1688D02*
Y2808D01*
X45140D02*
X45660D01*
X45140Y1688D02*
X45660D01*
X45140D02*
Y2808D01*
X45630Y6138D02*
X47180D01*
X45630Y5358D02*
Y6138D01*
Y5358D02*
X47180D01*
Y6138D01*
X45630Y5138D02*
X47180D01*
X45630Y4358D02*
Y5138D01*
Y4358D02*
X47180D01*
Y5138D01*
X36995Y18835D02*
X38545D01*
X36995Y18055D02*
Y18835D01*
Y18055D02*
X38545D01*
Y18835D01*
X36991Y18026D02*
X38541D01*
X36991Y17246D02*
Y18026D01*
Y17246D02*
X38541D01*
Y18026D01*
X33010Y4728D02*
Y6278D01*
Y4728D02*
X33790D01*
Y6278D01*
X33010D02*
X33790D01*
X34010Y4728D02*
Y6278D01*
Y4728D02*
X34790D01*
Y6278D01*
X34010D02*
X34790D01*
X47030Y7788D02*
X48580D01*
X47030Y7008D02*
Y7788D01*
Y7008D02*
X48580D01*
Y7788D01*
X47030Y6988D02*
X48580D01*
X47030Y6208D02*
Y6988D01*
Y6208D02*
X48580D01*
Y6988D01*
X46370Y9108D02*
X47920D01*
Y9888D01*
X46370D02*
X47920D01*
X46370Y9108D02*
Y9888D01*
Y8108D02*
X47920D01*
Y8888D01*
X46370D02*
X47920D01*
X46370Y8108D02*
Y8888D01*
X45620Y13108D02*
X47170D01*
Y13888D01*
X45620D02*
X47170D01*
X45620Y13108D02*
Y13888D01*
Y14108D02*
X47170D01*
Y14888D01*
X45620D02*
X47170D01*
X45620Y14108D02*
Y14888D01*
X42370Y7858D02*
X43920D01*
Y8638D01*
X42370D02*
X43920D01*
X42370Y7858D02*
Y8638D01*
X35980Y14138D02*
X37530D01*
X35980Y13358D02*
Y14138D01*
Y13358D02*
X37530D01*
Y14138D01*
X42370Y8858D02*
X43920D01*
Y9638D01*
X42370D02*
X43920D01*
X42370Y8858D02*
Y9638D01*
X34583Y11451D02*
X36133D01*
X34583Y10671D02*
Y11451D01*
Y10671D02*
X36133D01*
Y11451D01*
X34071Y7388D02*
X35621D01*
X34071Y6608D02*
Y7388D01*
Y6608D02*
X35621D01*
Y7388D01*
X35980Y14938D02*
X37530D01*
X35980Y14158D02*
Y14938D01*
Y14158D02*
X37530D01*
Y14938D01*
X40690Y14298D02*
X40730Y14338D01*
X40810D01*
X40850Y14298D01*
Y14138D01*
X40810Y14098D01*
X40730D01*
X40690Y14138D01*
X40490Y14098D02*
Y14338D01*
X40610Y14218D01*
X40450D01*
X40370Y14298D02*
X40330Y14338D01*
X40250D01*
X40210Y14298D01*
Y14258D01*
X40250Y14218D01*
X40210Y14178D01*
Y14138D01*
X40250Y14098D01*
X40330D01*
X40370Y14138D01*
Y14178D01*
X40330Y14218D01*
X40370Y14258D01*
Y14298D01*
X40330Y14218D02*
X40250D01*
X40690Y13748D02*
X40730Y13788D01*
X40810D01*
X40850Y13748D01*
Y13588D01*
X40810Y13548D01*
X40730D01*
X40690Y13588D01*
X40490Y13548D02*
Y13788D01*
X40610Y13668D01*
X40450D01*
X40370Y13788D02*
X40210D01*
Y13748D01*
X40370Y13588D01*
Y13548D01*
X43600Y3198D02*
X43840D01*
Y3318D01*
X43800Y3358D01*
X43720D01*
X43680Y3318D01*
Y3198D01*
Y3278D02*
X43600Y3358D01*
X43840Y3598D02*
Y3438D01*
X43720D01*
X43760Y3518D01*
Y3558D01*
X43720Y3598D01*
X43640D01*
X43600Y3558D01*
Y3478D01*
X43640Y3438D01*
X43840Y3838D02*
Y3678D01*
X43720D01*
X43760Y3758D01*
Y3798D01*
X43720Y3838D01*
X43640D01*
X43600Y3798D01*
Y3718D01*
X43640Y3678D01*
X31750Y5398D02*
Y5638D01*
X31630D01*
X31590Y5598D01*
Y5518D01*
X31630Y5478D01*
X31750D01*
X31670D02*
X31590Y5398D01*
X31510Y5598D02*
X31470Y5638D01*
X31390D01*
X31350Y5598D01*
Y5558D01*
X31390Y5518D01*
X31350Y5478D01*
Y5438D01*
X31390Y5398D01*
X31470D01*
X31510Y5438D01*
Y5478D01*
X31470Y5518D01*
X31510Y5558D01*
Y5598D01*
X31470Y5518D02*
X31390D01*
X31270Y5358D02*
X31110D01*
X31030Y5398D02*
X30950D01*
X30990D01*
Y5638D01*
X31030Y5598D01*
X30850Y5448D02*
Y5688D01*
X30730D01*
X30690Y5648D01*
Y5568D01*
X30730Y5528D01*
X30850D01*
X30770D02*
X30690Y5448D01*
X30610Y5688D02*
X30450D01*
Y5648D01*
X30610Y5488D01*
Y5448D01*
X30370Y5408D02*
X30210D01*
X30130Y5448D02*
X30050D01*
X30090D01*
Y5688D01*
X30130Y5648D01*
X31650Y11048D02*
Y11288D01*
X31530D01*
X31490Y11248D01*
Y11168D01*
X31530Y11128D01*
X31650D01*
X31570D02*
X31490Y11048D01*
X31410D02*
X31330D01*
X31370D01*
Y11288D01*
X31410Y11248D01*
X31210D02*
X31170Y11288D01*
X31090D01*
X31050Y11248D01*
Y11088D01*
X31090Y11048D01*
X31170D01*
X31210Y11088D01*
Y11248D01*
X30970Y11008D02*
X30810D01*
X30730Y11048D02*
X30650D01*
X30690D01*
Y11288D01*
X30730Y11248D01*
X30350Y11698D02*
Y11938D01*
X30230D01*
X30190Y11898D01*
Y11818D01*
X30230Y11778D01*
X30350D01*
X30270D02*
X30190Y11698D01*
X30110Y11738D02*
X30070Y11698D01*
X29990D01*
X29950Y11738D01*
Y11898D01*
X29990Y11938D01*
X30070D01*
X30110Y11898D01*
Y11858D01*
X30070Y11818D01*
X29950D01*
X29870Y11658D02*
X29710D01*
X29630Y11698D02*
X29550D01*
X29590D01*
Y11938D01*
X29630Y11898D01*
X45800Y3238D02*
Y2998D01*
X45680D01*
X45640Y3038D01*
Y3198D01*
X45680Y3238D01*
X45800D01*
X45400D02*
X45560D01*
Y3118D01*
X45480Y3158D01*
X45440D01*
X45400Y3118D01*
Y3038D01*
X45440Y2998D01*
X45520D01*
X45560Y3038D01*
X45240Y5798D02*
X45280Y5838D01*
X45360D01*
X45400Y5798D01*
Y5638D01*
X45360Y5598D01*
X45280D01*
X45240Y5638D01*
X45040Y5598D02*
Y5838D01*
X45160Y5718D01*
X45000D01*
X44760Y5598D02*
X44920D01*
X44760Y5758D01*
Y5798D01*
X44800Y5838D01*
X44880D01*
X44920Y5798D01*
X45190Y4898D02*
X45230Y4938D01*
X45310D01*
X45350Y4898D01*
Y4738D01*
X45310Y4698D01*
X45230D01*
X45190Y4738D01*
X44990Y4698D02*
Y4938D01*
X45110Y4818D01*
X44950D01*
X44870Y4698D02*
X44790D01*
X44830D01*
Y4938D01*
X44870Y4898D01*
X36690Y18298D02*
X36730Y18338D01*
X36810D01*
X36850Y18298D01*
Y18138D01*
X36810Y18098D01*
X36730D01*
X36690Y18138D01*
X36490Y18098D02*
Y18338D01*
X36610Y18218D01*
X36450D01*
X36370Y18298D02*
X36330Y18338D01*
X36250D01*
X36210Y18298D01*
Y18138D01*
X36250Y18098D01*
X36330D01*
X36370Y18138D01*
Y18298D01*
X36640Y17648D02*
X36680Y17688D01*
X36760D01*
X36800Y17648D01*
Y17488D01*
X36760Y17448D01*
X36680D01*
X36640Y17488D01*
X36560Y17648D02*
X36520Y17688D01*
X36440D01*
X36400Y17648D01*
Y17608D01*
X36440Y17568D01*
X36480D01*
X36440D01*
X36400Y17528D01*
Y17488D01*
X36440Y17448D01*
X36520D01*
X36560Y17488D01*
X36320D02*
X36280Y17448D01*
X36200D01*
X36160Y17488D01*
Y17648D01*
X36200Y17688D01*
X36280D01*
X36320Y17648D01*
Y17608D01*
X36280Y17568D01*
X36160D01*
X33290Y4498D02*
X33330Y4538D01*
X33410D01*
X33450Y4498D01*
Y4338D01*
X33410Y4298D01*
X33330D01*
X33290Y4338D01*
X33210Y4498D02*
X33170Y4538D01*
X33090D01*
X33050Y4498D01*
Y4458D01*
X33090Y4418D01*
X33130D01*
X33090D01*
X33050Y4378D01*
Y4338D01*
X33090Y4298D01*
X33170D01*
X33210Y4338D01*
X32810Y4538D02*
X32890Y4498D01*
X32970Y4418D01*
Y4338D01*
X32930Y4298D01*
X32850D01*
X32810Y4338D01*
Y4378D01*
X32850Y4418D01*
X32970D01*
X34690Y4498D02*
X34730Y4538D01*
X34810D01*
X34850Y4498D01*
Y4338D01*
X34810Y4298D01*
X34730D01*
X34690Y4338D01*
X34610Y4498D02*
X34570Y4538D01*
X34490D01*
X34450Y4498D01*
Y4458D01*
X34490Y4418D01*
X34530D01*
X34490D01*
X34450Y4378D01*
Y4338D01*
X34490Y4298D01*
X34570D01*
X34610Y4338D01*
X34370Y4498D02*
X34330Y4538D01*
X34250D01*
X34210Y4498D01*
Y4458D01*
X34250Y4418D01*
X34290D01*
X34250D01*
X34210Y4378D01*
Y4338D01*
X34250Y4298D01*
X34330D01*
X34370Y4338D01*
X48900Y7408D02*
X48940Y7368D01*
Y7288D01*
X48900Y7248D01*
X48740D01*
X48700Y7288D01*
Y7368D01*
X48740Y7408D01*
X48940Y7648D02*
X48900Y7568D01*
X48820Y7488D01*
X48740D01*
X48700Y7528D01*
Y7608D01*
X48740Y7648D01*
X48780D01*
X48820Y7608D01*
Y7488D01*
X48660Y7728D02*
Y7888D01*
X48700Y7968D02*
Y8048D01*
Y8008D01*
X48940D01*
X48900Y7968D01*
Y6458D02*
X48940Y6418D01*
Y6338D01*
X48900Y6298D01*
X48740D01*
X48700Y6338D01*
Y6418D01*
X48740Y6458D01*
X48940Y6538D02*
Y6698D01*
X48900D01*
X48740Y6538D01*
X48700D01*
X48660Y6778D02*
Y6938D01*
X48700Y7018D02*
Y7098D01*
Y7058D01*
X48940D01*
X48900Y7018D01*
X48290Y9498D02*
X48330Y9538D01*
X48410D01*
X48450Y9498D01*
Y9338D01*
X48410Y9298D01*
X48330D01*
X48290Y9338D01*
X48210Y9498D02*
X48170Y9538D01*
X48090D01*
X48050Y9498D01*
Y9458D01*
X48090Y9418D01*
X48130D01*
X48090D01*
X48050Y9378D01*
Y9338D01*
X48090Y9298D01*
X48170D01*
X48210Y9338D01*
X47970Y9258D02*
X47810D01*
X47730Y9298D02*
X47650D01*
X47690D01*
Y9538D01*
X47730Y9498D01*
X48340Y8598D02*
X48380Y8638D01*
X48460D01*
X48500Y8598D01*
Y8438D01*
X48460Y8398D01*
X48380D01*
X48340Y8438D01*
X48140Y8398D02*
Y8638D01*
X48260Y8518D01*
X48100D01*
X48020Y8358D02*
X47860D01*
X47780Y8398D02*
X47700D01*
X47740D01*
Y8638D01*
X47780Y8598D01*
X45400Y13308D02*
X45440Y13268D01*
Y13188D01*
X45400Y13148D01*
X45240D01*
X45200Y13188D01*
Y13268D01*
X45240Y13308D01*
X45200Y13548D02*
Y13388D01*
X45360Y13548D01*
X45400D01*
X45440Y13508D01*
Y13428D01*
X45400Y13388D01*
Y13628D02*
X45440Y13668D01*
Y13748D01*
X45400Y13788D01*
X45360D01*
X45320Y13748D01*
X45280Y13788D01*
X45240D01*
X45200Y13748D01*
Y13668D01*
X45240Y13628D01*
X45280D01*
X45320Y13668D01*
X45360Y13628D01*
X45400D01*
X45320Y13668D02*
Y13748D01*
X45450Y14408D02*
X45490Y14368D01*
Y14288D01*
X45450Y14248D01*
X45290D01*
X45250Y14288D01*
Y14368D01*
X45290Y14408D01*
X45250Y14648D02*
Y14488D01*
X45410Y14648D01*
X45450D01*
X45490Y14608D01*
Y14528D01*
X45450Y14488D01*
X45490Y14728D02*
Y14888D01*
X45450D01*
X45290Y14728D01*
X45250D01*
X44590Y8348D02*
X44630Y8388D01*
X44710D01*
X44750Y8348D01*
Y8188D01*
X44710Y8148D01*
X44630D01*
X44590Y8188D01*
X44350Y8148D02*
X44510D01*
X44350Y8308D01*
Y8348D01*
X44390Y8388D01*
X44470D01*
X44510Y8348D01*
X44270D02*
X44230Y8388D01*
X44150D01*
X44110Y8348D01*
Y8188D01*
X44150Y8148D01*
X44230D01*
X44270Y8188D01*
Y8348D01*
X37890Y13698D02*
X37930Y13738D01*
X38010D01*
X38050Y13698D01*
Y13538D01*
X38010Y13498D01*
X37930D01*
X37890Y13538D01*
X37650Y13498D02*
X37810D01*
X37650Y13658D01*
Y13698D01*
X37690Y13738D01*
X37770D01*
X37810Y13698D01*
X37570Y13458D02*
X37410D01*
X37330Y13498D02*
X37250D01*
X37290D01*
Y13738D01*
X37330Y13698D01*
X44540Y9348D02*
X44580Y9388D01*
X44660D01*
X44700Y9348D01*
Y9188D01*
X44660Y9148D01*
X44580D01*
X44540Y9188D01*
X44460Y9148D02*
X44380D01*
X44420D01*
Y9388D01*
X44460Y9348D01*
X44260Y9388D02*
X44100D01*
Y9348D01*
X44260Y9188D01*
Y9148D01*
X44020Y9108D02*
X43860D01*
X43780Y9148D02*
X43700D01*
X43740D01*
Y9388D01*
X43780Y9348D01*
X36513Y10961D02*
X36473Y10921D01*
X36393D01*
X36353Y10961D01*
Y11121D01*
X36393Y11161D01*
X36473D01*
X36513Y11121D01*
X36593Y11161D02*
X36673D01*
X36633D01*
Y10921D01*
X36593Y10961D01*
X36953Y10921D02*
X36873Y10961D01*
X36793Y11041D01*
Y11121D01*
X36833Y11161D01*
X36913D01*
X36953Y11121D01*
Y11081D01*
X36913Y11041D01*
X36793D01*
X37032Y11201D02*
X37192D01*
X37272Y11161D02*
X37352D01*
X37312D01*
Y10921D01*
X37272Y10961D01*
X36001Y6998D02*
X35961Y6958D01*
X35881D01*
X35841Y6998D01*
Y7158D01*
X35881Y7198D01*
X35961D01*
X36001Y7158D01*
X36081Y7198D02*
X36161D01*
X36121D01*
Y6958D01*
X36081Y6998D01*
X36401Y7198D02*
Y6958D01*
X36281Y7078D01*
X36441D01*
X36521Y7238D02*
X36681D01*
X36761Y7198D02*
X36841D01*
X36801D01*
Y6958D01*
X36761Y6998D01*
X37890Y14748D02*
X37930Y14788D01*
X38010D01*
X38050Y14748D01*
Y14588D01*
X38010Y14548D01*
X37930D01*
X37890Y14588D01*
X37810Y14548D02*
X37730D01*
X37770D01*
Y14788D01*
X37810Y14748D01*
X37610Y14508D02*
X37450D01*
X37370Y14548D02*
X37290D01*
X37330D01*
Y14788D01*
X37370Y14748D01*
X47482Y2658D02*
X47562D01*
X47522D01*
Y2458D01*
X47562Y2418D01*
X47602D01*
X47642Y2458D01*
X47402Y2418D02*
X47322D01*
X47362D01*
Y2658D01*
X47402Y2618D01*
X47202Y2378D02*
X47042D01*
X46962Y2418D02*
X46882D01*
X46922D01*
Y2658D01*
X46962Y2618D01*
X44750Y18648D02*
X44830D01*
X44790D01*
Y18448D01*
X44830Y18408D01*
X44870D01*
X44910Y18448D01*
X44550Y18408D02*
Y18648D01*
X44670Y18528D01*
X44510D01*
X44430Y18368D02*
X44270D01*
X44190Y18408D02*
X44110D01*
X44150D01*
Y18648D01*
X44190Y18608D01*
X39510Y2579D02*
X39590D01*
X39550D01*
Y2379D01*
X39590Y2339D01*
X39630D01*
X39670Y2379D01*
X39430Y2539D02*
X39390Y2579D01*
X39310D01*
X39270Y2539D01*
Y2499D01*
X39310Y2459D01*
X39350D01*
X39310D01*
X39270Y2419D01*
Y2379D01*
X39310Y2339D01*
X39390D01*
X39430Y2379D01*
X39190Y2299D02*
X39030D01*
X38950Y2339D02*
X38870D01*
X38910D01*
Y2579D01*
X38950Y2539D01*
X34867Y18578D02*
X34947D01*
X34907D01*
Y18378D01*
X34947Y18338D01*
X34987D01*
X35027Y18378D01*
X34627Y18338D02*
X34787D01*
X34627Y18498D01*
Y18538D01*
X34667Y18578D01*
X34747D01*
X34787Y18538D01*
X34547Y18298D02*
X34387D01*
X34307Y18338D02*
X34227D01*
X34267D01*
Y18578D01*
X34307Y18538D01*
X5437Y18560D02*
X5517D01*
X5477D01*
Y18360D01*
X5517Y18320D01*
X5557D01*
X5597Y18360D01*
X5197Y18320D02*
X5357D01*
X5197Y18480D01*
Y18520D01*
X5237Y18560D01*
X5317D01*
X5357Y18520D01*
X12717Y1950D02*
Y1870D01*
Y1910D01*
X12517D01*
X12477Y1870D01*
Y1830D01*
X12517Y1790D01*
X12677Y2030D02*
X12717Y2070D01*
Y2150D01*
X12677Y2190D01*
X12637D01*
X12597Y2150D01*
Y2110D01*
Y2150D01*
X12557Y2190D01*
X12517D01*
X12477Y2150D01*
Y2070D01*
X12517Y2030D01*
X15320Y18630D02*
X15400D01*
X15360D01*
Y18430D01*
X15400Y18390D01*
X15440D01*
X15480Y18430D01*
X15120Y18390D02*
Y18630D01*
X15240Y18510D01*
X15080D01*
X19720Y2030D02*
Y1950D01*
Y1990D01*
X19520D01*
X19480Y1950D01*
Y1910D01*
X19520Y1870D01*
X19480Y2110D02*
Y2190D01*
Y2150D01*
X19720D01*
X19680Y2110D01*
M02*
