M48
;Layer_Color=9474304
;FILE_FORMAT=2:4
INCH,LZ
;TYPE=PLATED
T1F00S00C0.0120
T2F00S00C0.0130
T3F00S00C0.0150
T4F00S00C0.0160
T5F00S00C0.0300
T6F00S00C0.0315
T7F00S00C0.0394
T8F00S00C0.0400
T9F00S00C0.0420
T10F00S00C0.0472
%
T01
X00575Y00841
X005742Y00968
Y01248
X008312Y01234
X00965Y012485
Y00956
X00702Y0074
X01167Y006789
X00767Y013005
X00418Y01302
T02
X035806Y007045
X034821Y008502
X035724Y010577
X036278Y010825
X033483Y010785
T03
X00258Y01161
X00257Y012626
X006267Y011971
X010221Y011964
X00815Y013705
X00418Y013616
X00115Y01389
X01257Y01617
Y017059
X04186Y016108
X0423Y015198
X04617Y015268
X04186Y019288
T04
X047025Y010436
X0474Y010248
X04785
X048207Y010628
X048169Y012834
X0474Y012248
X0464
X0465Y012648
X0469Y012748
X045588Y011936
X044794Y011892
X0434Y012436
X0419Y012248
X04085Y012448
X0404Y012248
X040525Y010748
X041588Y010248
X042275
X042695Y009998
X042262Y011061
X0384Y010998
Y008551
X038404Y006455
X036475Y006888
X033837Y007282
X032617Y006967
X03265Y007748
X0319Y008123
X032775Y008798
X034939Y008935
X034428Y011848
X033522Y011533
X031713Y011748
X032625Y012698
X03265Y005833
X032144Y005589
X031672
X0314Y006936
X031475Y003298
X0324Y003248
X033275Y002248
X035025
X035806Y004368
X035097Y005156
X03385Y004298
X0384Y003998
X040525
X041588Y004248
Y004998
X04265Y004873
Y005508
X042775Y007186
X043349Y007255
X0449Y007498
X0459
X04665Y006498
X04615Y003248
X046435Y002675
Y001888
X044479Y001541
X044361Y002549
X045157Y003366
X0424Y003748
X0404Y002748
X040687Y002045
X0379Y001998
X031369Y001904
X040275Y007498
X031212Y007561
X03115Y007998
X030465Y008566
X0309Y009673
X030213Y012473
X028275Y012373
X025875Y012498
X0272Y010273
X030333Y006297
X030175Y013873
Y014873
Y016123
X02995Y017523
X0304Y018623
X026175Y018398
X031775Y019373
X031988Y016998
X0323Y016498
X032325Y015498
X0343Y015538
X034725Y013073
X035775Y014123
X0378Y014098
X0369Y012998
Y016198
X0375Y016298
X03895Y016061
X0394Y016013
X0397Y015498
X038588Y015548
X038605Y017436
X038775Y019123
X037575Y019223
X036775Y019023
X036275Y018623
X0344Y018748
X032613Y017623
X0323Y013198
X04063Y013328
X0428Y014098
X042875Y014483
X04397Y014713
X045Y014061
X04565Y015248
X045563Y015861
X045525Y016323
X046475Y016179
X046825Y015223
X043Y015698
X04272Y016248
X0414Y015998
X04083Y016128
X04267Y017808
X0405Y019323
X04143Y020548
X04589Y020588
X0474Y013748
X0478Y013198
T05
X01587Y005815
Y006602
Y007389
Y008177
X00258Y015775
X00158
Y01825
X00258
X0351Y01666
Y015873
Y015085
Y014298
T06
X02776Y004931
Y005719
Y006506
Y007293
Y008081
Y008868
X028744
Y008081
Y007293
Y006506
Y005719
Y004931
T07
X0479Y000998
X0469
X0459
X0449
X0439
X0429
X0409
X0399
X0389
X0379
X0369
X0359
X0349
X0339
X01867Y001
X01767
X01667
X01567
X01467
X01367
X01167
X01067
X00967
X00867
X00767
X00667
X00567
X00467
X00507Y02
X00607
X00707
X00807
X00907
X01007
X01167
X01267
X01367
X01467
X01567
X00407
X00307
X00207
X00107
X01667
X01767
X01867
X0303Y019998
X0313
X0323
X0333
X0343
X0353
X0363
X0373
X0383
X0393
X0409
X0419
X0429
X0439
X0449
X0459
X0469
X0479
T08
X0477Y003398
X03615Y012498
X0339
X03292Y018748
X03538
T09
X01567Y01469
Y015674
Y016659
Y017643
X02835Y016451
Y015467
Y014482
Y013498
T10
X02715Y004301
X029355Y009498
M30
