G04*
G04 #@! TF.GenerationSoftware,Altium Limited,Altium Designer,20.0.13 (296)*
G04*
G04 Layer_Color=16711935*
%FSLAX24Y24*%
%MOIN*%
G70*
G01*
G75*
%ADD34R,0.0592X0.0671*%
%ADD38R,0.0631X0.0513*%
%ADD39R,0.0513X0.0631*%
%ADD40R,0.0631X0.0474*%
%ADD42R,0.0671X0.0592*%
%ADD44C,0.1000*%
%ADD47P,0.0801X8X22.5*%
%ADD48P,0.0736X8X22.5*%
%ADD49R,0.0680X0.0680*%
%ADD50C,0.0680*%
%ADD51C,0.0595*%
%ADD52C,0.0789*%
%ADD53C,0.0580*%
%ADD54C,0.0380*%
%ADD55C,0.0350*%
%ADD56C,0.0320*%
%ADD57C,0.0330*%
D34*
X42135Y14298D02*
D03*
X41465D02*
D03*
X42135Y13498D02*
D03*
X41465D02*
D03*
X46735Y5748D02*
D03*
X46065D02*
D03*
X46735Y4748D02*
D03*
X46065D02*
D03*
X38100Y18445D02*
D03*
X37430D02*
D03*
X38095Y17636D02*
D03*
X37426D02*
D03*
X48135Y7398D02*
D03*
X47465D02*
D03*
X48135Y6598D02*
D03*
X47465D02*
D03*
X46815Y9498D02*
D03*
X47485D02*
D03*
X46815Y8498D02*
D03*
X47485D02*
D03*
X46065Y13498D02*
D03*
X46735D02*
D03*
X46065Y14498D02*
D03*
X46735D02*
D03*
X42815Y8248D02*
D03*
X43485D02*
D03*
X37085Y13748D02*
D03*
X36415D02*
D03*
X42815Y9248D02*
D03*
X43485D02*
D03*
X35687Y11061D02*
D03*
X35018D02*
D03*
X35175Y6998D02*
D03*
X34506D02*
D03*
X37085Y14548D02*
D03*
X36415D02*
D03*
D38*
X44400Y3892D02*
D03*
Y3104D02*
D03*
X31650Y4104D02*
D03*
Y4892D02*
D03*
X30650D02*
D03*
Y4104D02*
D03*
X30150Y10354D02*
D03*
Y11142D02*
D03*
D39*
X31006Y10498D02*
D03*
X31794D02*
D03*
D40*
X45833Y2622D02*
D03*
Y1874D02*
D03*
X44967Y2248D02*
D03*
D42*
X33400Y5833D02*
D03*
Y5163D02*
D03*
X34400Y5833D02*
D03*
Y5163D02*
D03*
D44*
X52000Y-3000D02*
D03*
X53000Y22000D02*
D03*
X-3000Y24000D02*
D03*
D47*
X43900Y19998D02*
D03*
X42900Y998D02*
D03*
X44900Y19998D02*
D03*
X45900D02*
D03*
X46900D02*
D03*
X47900D02*
D03*
X42900D02*
D03*
X41900D02*
D03*
X40900D02*
D03*
X39300D02*
D03*
X38300D02*
D03*
X37300D02*
D03*
X36300D02*
D03*
X35300D02*
D03*
X34300D02*
D03*
X33300D02*
D03*
X32300D02*
D03*
X43900Y998D02*
D03*
X44900D02*
D03*
X45900D02*
D03*
X46900D02*
D03*
X47900D02*
D03*
X40900D02*
D03*
X39900D02*
D03*
X38900D02*
D03*
X37900D02*
D03*
X36900D02*
D03*
X35900D02*
D03*
X31300Y19998D02*
D03*
X30300D02*
D03*
X34900Y998D02*
D03*
X33900D02*
D03*
X14670Y20000D02*
D03*
X13670Y1000D02*
D03*
X15670Y20000D02*
D03*
X16670D02*
D03*
X17670D02*
D03*
X18670D02*
D03*
X13670D02*
D03*
X12670D02*
D03*
X11670D02*
D03*
X10070D02*
D03*
X9070D02*
D03*
X8070D02*
D03*
X7070D02*
D03*
X6070D02*
D03*
X5070D02*
D03*
X4070D02*
D03*
X3070D02*
D03*
X14670Y1000D02*
D03*
X15670D02*
D03*
X16670D02*
D03*
X17670D02*
D03*
X18670D02*
D03*
X11670D02*
D03*
X10670D02*
D03*
X9670D02*
D03*
X8670D02*
D03*
X7670D02*
D03*
X6670D02*
D03*
X2070Y20000D02*
D03*
X1070D02*
D03*
X5670Y1000D02*
D03*
X4670D02*
D03*
D48*
X47700Y3398D02*
D03*
X36150Y12498D02*
D03*
X33900D02*
D03*
X35380Y18748D02*
D03*
X32920D02*
D03*
D49*
X28350Y16451D02*
D03*
X35100Y16660D02*
D03*
X15670Y17643D02*
D03*
X15870Y5815D02*
D03*
D50*
X28350Y15467D02*
D03*
Y14482D02*
D03*
Y13498D02*
D03*
X35100Y15873D02*
D03*
Y15085D02*
D03*
Y14298D02*
D03*
X15670Y16659D02*
D03*
Y15674D02*
D03*
Y14690D02*
D03*
X15870Y8177D02*
D03*
Y7389D02*
D03*
Y6602D02*
D03*
D51*
X27760Y8868D02*
D03*
Y8081D02*
D03*
Y7293D02*
D03*
Y6506D02*
D03*
Y5719D02*
D03*
Y4931D02*
D03*
X28744Y8868D02*
D03*
Y8081D02*
D03*
Y7293D02*
D03*
Y6506D02*
D03*
Y5719D02*
D03*
Y4931D02*
D03*
D52*
X29355Y9498D02*
D03*
X27150Y4301D02*
D03*
D53*
X2580Y18250D02*
D03*
X1580D02*
D03*
X2580Y15775D02*
D03*
X1580D02*
D03*
D54*
X32775Y8798D02*
D03*
X42650Y5508D02*
D03*
X40850Y12448D02*
D03*
X45000Y14061D02*
D03*
X38950Y16061D02*
D03*
X37500Y16298D02*
D03*
X44794Y11892D02*
D03*
X44479Y1541D02*
D03*
X45563Y15861D02*
D03*
X42720Y16248D02*
D03*
X42775Y7186D02*
D03*
X31400Y6936D02*
D03*
X47800Y13198D02*
D03*
X37900Y1998D02*
D03*
X43400Y12436D02*
D03*
X46150Y3248D02*
D03*
X46650Y6498D02*
D03*
X41588Y4998D02*
D03*
X46400Y12248D02*
D03*
X47400Y10248D02*
D03*
X46900Y12748D02*
D03*
X31713Y11748D02*
D03*
X41400Y15998D02*
D03*
X39700Y15498D02*
D03*
X32300Y16498D02*
D03*
X31212Y7561D02*
D03*
X32300Y13198D02*
D03*
X32650Y7748D02*
D03*
X31150Y7998D02*
D03*
X44900Y7498D02*
D03*
X43000Y15698D02*
D03*
X41900Y12248D02*
D03*
X40400D02*
D03*
X41588Y10248D02*
D03*
X42400Y3748D02*
D03*
X41588Y4248D02*
D03*
X40400Y2748D02*
D03*
X42275Y10248D02*
D03*
X38400Y10998D02*
D03*
X42650Y4873D02*
D03*
X47850Y10248D02*
D03*
X42800Y14098D02*
D03*
X38605Y17436D02*
D03*
X45650Y15248D02*
D03*
X32400Y3248D02*
D03*
X25875Y12498D02*
D03*
X26175Y18398D02*
D03*
X31475Y3298D02*
D03*
X32325Y15498D02*
D03*
X36775Y19023D02*
D03*
X40830Y16128D02*
D03*
X40630Y13328D02*
D03*
X42875Y14483D02*
D03*
X46500Y12648D02*
D03*
X43970Y14713D02*
D03*
X30465Y8566D02*
D03*
X45157Y3366D02*
D03*
X44361Y2549D02*
D03*
X31369Y1904D02*
D03*
X40525Y3998D02*
D03*
X40500Y19323D02*
D03*
X34725Y13073D02*
D03*
X34428Y11848D02*
D03*
X30400Y18623D02*
D03*
X27200Y10273D02*
D03*
X30900Y9673D02*
D03*
X30333Y6297D02*
D03*
X40687Y2045D02*
D03*
X33275Y2248D02*
D03*
X35025D02*
D03*
X46435Y2675D02*
D03*
Y1888D02*
D03*
X47025Y10436D02*
D03*
X43349Y7255D02*
D03*
X45900Y7498D02*
D03*
X47400Y13748D02*
D03*
X42262Y11061D02*
D03*
X35097Y5156D02*
D03*
X36475Y6888D02*
D03*
X40275Y7498D02*
D03*
X40525Y10748D02*
D03*
X31988Y16998D02*
D03*
X32625Y12698D02*
D03*
X32613Y17623D02*
D03*
X34300Y15538D02*
D03*
X28275Y12373D02*
D03*
X30175Y13873D02*
D03*
Y16123D02*
D03*
X31775Y19373D02*
D03*
X36275Y18623D02*
D03*
X37575Y19223D02*
D03*
X38775Y19123D02*
D03*
X46825Y15223D02*
D03*
X45525Y16323D02*
D03*
X46475Y16179D02*
D03*
X34400Y18748D02*
D03*
X35775Y14123D02*
D03*
X36900Y16198D02*
D03*
X29950Y17523D02*
D03*
X30175Y14873D02*
D03*
X30213Y12473D02*
D03*
X42670Y17808D02*
D03*
X41430Y20548D02*
D03*
X45890Y20588D02*
D03*
X32144Y5589D02*
D03*
X38400Y3998D02*
D03*
X38404Y6455D02*
D03*
X38400Y8551D02*
D03*
X42695Y9998D02*
D03*
X47400Y12248D02*
D03*
X48207Y10628D02*
D03*
X48169Y12834D02*
D03*
X31672Y5589D02*
D03*
X39400Y16013D02*
D03*
X33522Y11533D02*
D03*
X36900Y12998D02*
D03*
X34939Y8935D02*
D03*
X32617Y6967D02*
D03*
X33837Y7282D02*
D03*
X33850Y4298D02*
D03*
X32650Y5833D02*
D03*
X35806Y4368D02*
D03*
X31900Y8123D02*
D03*
X38588Y15548D02*
D03*
X37800Y14098D02*
D03*
X45588Y11936D02*
D03*
D55*
X42300Y15198D02*
D03*
X46170Y15268D02*
D03*
X41860Y16108D02*
D03*
Y19288D02*
D03*
X35724Y10577D02*
D03*
X34821Y8502D02*
D03*
X36278Y10825D02*
D03*
X35806Y7045D02*
D03*
X33483Y10785D02*
D03*
D56*
X9650Y9560D02*
D03*
X5742Y12480D02*
D03*
Y9680D02*
D03*
X9650Y12485D02*
D03*
X4180Y13020D02*
D03*
X7670Y13005D02*
D03*
X7020Y7400D02*
D03*
X5750Y8410D02*
D03*
X8312Y12340D02*
D03*
X11670Y6789D02*
D03*
D57*
X6267Y11971D02*
D03*
X4180Y13616D02*
D03*
X1150Y13890D02*
D03*
X8150Y13705D02*
D03*
X10221Y11964D02*
D03*
X12570Y16170D02*
D03*
Y17059D02*
D03*
X2580Y11610D02*
D03*
X2570Y12626D02*
D03*
M02*
